# Blender v2.68 (sub 0) OBJ File: ''
# www.blender.org
v 0.000000 -0.500000 0.000000
v -0.097545 -0.490393 0.000000
v -0.191342 -0.461940 0.000000
v -0.277785 -0.415735 0.000000
v -0.353553 -0.353553 0.000000
v -0.415735 -0.277785 0.000000
v -0.461940 -0.191342 0.000000
v -0.490393 -0.097545 0.000000
v -0.500000 -0.000000 0.000000
v 0.000000 0.000000 1.000000
v -0.490393 0.097545 0.000000
v -0.461940 0.191342 0.000000
v -0.415735 0.277785 0.000000
v -0.353553 0.353553 0.000000
v -0.277785 0.415735 0.000000
v -0.191342 0.461940 0.000000
v -0.097545 0.490393 0.000000
v 0.000000 0.500000 0.000000
v 0.097545 0.490393 0.000000
v 0.191342 0.461940 0.000000
v 0.277785 0.415735 0.000000
v 0.353554 0.353553 0.000000
v 0.415735 0.277785 0.000000
v 0.461940 0.191341 0.000000
v 0.490393 0.097545 0.000000
v 0.500000 -0.000000 0.000000
v 0.490393 -0.097546 0.000000
v 0.461940 -0.191342 0.000000
v 0.415734 -0.277786 0.000000
v 0.353553 -0.353554 0.000000
v 0.277785 -0.415735 0.000000
v 0.191341 -0.461940 0.000000
v 0.097544 -0.490393 0.000000
vn 0.259887 -0.856737 0.445488
vn -0.087754 -0.890977 0.445488
vn 0.087753 -0.890977 0.445488
vn -0.259888 -0.856737 0.445488
vn 0.422035 -0.789574 0.445488
vn 0.567964 -0.692067 0.445488
vn 0.692066 -0.567965 0.445488
vn 0.789573 -0.422037 0.445488
vn 0.856737 -0.259889 0.445488
vn 0.890977 -0.087754 0.445488
vn 0.890977 0.087753 0.445488
vn 0.856737 0.259887 0.445488
vn 0.789574 0.422035 0.445488
vn 0.692067 0.567964 0.445488
vn 0.567965 0.692066 0.445488
vn 0.422036 0.789573 0.445488
vn 0.259889 0.856737 0.445488
vn 0.087754 0.890977 0.445488
vn -0.087753 0.890977 0.445488
vn -0.259888 0.856737 0.445488
vn -0.422036 0.789573 0.445488
vn -0.567965 0.692067 0.445488
vn -0.692067 0.567965 0.445488
vn -0.789573 0.422035 0.445488
vn -0.856737 0.259888 0.445488
vn -0.890977 0.087753 0.445488
vn -0.890977 -0.087754 0.445488
vn -0.856737 -0.259888 0.445488
vn -0.789573 -0.422036 0.445488
vn -0.692067 -0.567965 0.445488
vn -0.567965 -0.692067 0.445488
vn -0.422036 -0.789573 0.445488
vn -0.000000 -0.000000 -1.000000
s off
f 32//1 10//1 33//1
f 1//2 10//2 2//2
f 33//3 10//3 1//3
f 2//4 10//4 3//4
f 31//5 10//5 32//5
f 30//6 10//6 31//6
f 29//7 10//7 30//7
f 28//8 10//8 29//8
f 27//9 10//9 28//9
f 26//10 10//10 27//10
f 25//11 10//11 26//11
f 24//12 10//12 25//12
f 23//13 10//13 24//13
f 22//14 10//14 23//14
f 21//15 10//15 22//15
f 20//16 10//16 21//16
f 19//17 10//17 20//17
f 18//18 10//18 19//18
f 17//19 10//19 18//19
f 16//20 10//20 17//20
f 15//21 10//21 16//21
f 14//22 10//22 15//22
f 13//23 10//23 14//23
f 12//24 10//24 13//24
f 11//25 10//25 12//25
f 9//26 10//26 11//26
f 8//27 10//27 9//27
f 7//28 10//28 8//28
f 6//29 10//29 7//29
f 5//30 10//30 6//30
f 4//31 10//31 5//31
f 3//32 10//32 4//32
f 1//33 2//33 33//33
f 2//33 3//33 33//33
f 3//33 4//33 33//33
f 4//33 5//33 33//33
f 5//33 6//33 33//33
f 6//33 7//33 33//33
f 7//33 8//33 33//33
f 8//33 9//33 33//33
f 9//33 11//33 33//33
f 11//33 12//33 33//33
f 12//33 13//33 33//33
f 13//33 14//33 33//33
f 28//33 26//33 27//33
f 14//33 15//33 16//33
f 33//33 14//33 16//33
f 19//33 17//33 18//33
f 19//33 16//33 17//33
f 33//33 16//33 19//33
f 22//33 20//33 21//33
f 22//33 19//33 20//33
f 33//33 19//33 22//33
f 25//33 23//33 24//33
f 32//33 33//33 22//33
f 28//33 25//33 26//33
f 28//33 23//33 25//33
f 31//33 32//33 22//33
f 30//33 31//33 22//33
f 29//33 30//33 22//33
f 28//33 29//33 23//33
f 29//33 22//33 23//33
