# Blender v2.76 (sub 0) OBJ File: 'arm.blend'
# www.blender.org
v -0.001873 0.007382 0.124003
v 0.003120 0.006947 0.124002
v -0.006056 0.004620 0.124002
v 0.006309 0.004125 0.124001
v 0.007617 0.000144 0.124002
v -0.007617 -0.000144 0.124002
v 0.006056 -0.004620 0.124002
v -0.006309 -0.004126 0.124001
v -0.003120 -0.006947 0.124002
v 0.001873 -0.007382 0.124003
v 0.042475 -0.003545 0.024000
v 0.042399 -0.004374 0.063978
v 0.039109 -0.017226 0.024000
v 0.038713 -0.018098 0.063989
v 0.032386 -0.027588 0.024000
v 0.030628 -0.029643 0.063977
v 0.023588 -0.035635 0.024000
v 0.019231 -0.038163 0.063984
v 0.010543 -0.041299 0.024000
v 0.005757 -0.042233 0.063977
v -0.001520 -0.042596 0.024000
v -0.008486 -0.041883 0.063978
v -0.015345 -0.039884 0.024000
v -0.021577 -0.036759 0.063976
v -0.029070 -0.031324 0.024000
v -0.032568 -0.027668 0.063973
v -0.038629 -0.018276 0.024000
v -0.039681 -0.015563 0.063975
v -0.042379 -0.004558 0.024000
v -0.042135 -0.005897 0.063949
v -0.042399 0.004374 0.063978
v -0.042160 0.005700 0.024000
v -0.039109 0.017226 0.024000
v -0.038713 0.018098 0.063989
v -0.032386 0.027589 0.024000
v -0.030628 0.029643 0.063977
v -0.023588 0.035635 0.024000
v -0.019231 0.038163 0.063984
v -0.010543 0.041299 0.024000
v -0.005757 0.042233 0.063977
v 0.001520 0.042596 0.024000
v 0.008486 0.041883 0.063978
v 0.011642 0.040920 0.024000
v 0.022616 0.036260 0.024000
v 0.021577 0.036759 0.063975
v 0.029490 0.030667 0.063955
v 0.031917 0.028130 0.024000
v 0.034684 0.024644 0.063928
v 0.038629 0.018276 0.024000
v 0.039681 0.015563 0.063975
v 0.042058 0.006409 0.024000
v 0.042135 0.005897 0.063949
v -0.004684 -0.044879 0.024000
v 0.005858 -0.044661 0.024000
v -0.018812 -0.041137 0.024000
v 0.014663 0.042590 0.024000
v 0.004684 0.044879 0.024000
v -0.017727 0.041616 0.024000
v -0.005858 0.044661 0.024000
v -0.031563 0.032402 0.024000
v -0.041137 0.018812 0.024000
v -0.044879 0.004684 0.024000
v -0.044661 -0.005858 0.024000
v -0.041616 -0.017727 0.024000
v -0.032402 -0.031563 0.024000
v 0.022239 0.039171 0.024000
v 0.032402 0.031563 0.024000
v 0.041616 0.017727 0.024000
v 0.044661 0.005858 0.024000
v 0.044879 -0.004684 0.024000
v 0.041137 -0.018812 0.024000
v 0.031563 -0.032402 0.024000
v 0.017727 -0.041616 0.024000
v -0.009487 -0.033409 0.018000
v -0.031563 -0.032402 0.018000
v -0.022256 -0.026662 0.018000
v 0.032402 -0.031563 0.018000
v 0.003166 -0.034476 0.018000
v 0.015305 -0.031176 0.018000
v 0.018812 -0.041137 0.018000
v 0.006588 -0.044559 0.018000
v -0.003643 -0.044975 0.018000
v -0.017727 -0.041616 0.018000
v 0.003643 0.044975 0.018000
v 0.017727 0.041616 0.018000
v -0.003166 0.034476 0.018000
v -0.018812 0.041137 0.018000
v -0.006588 0.044559 0.018000
v -0.041137 -0.018812 0.018000
v -0.031176 -0.015305 0.018000
v -0.034476 -0.003166 0.018000
v -0.044559 -0.006588 0.018000
v -0.044975 0.003643 0.018000
v -0.033409 0.009487 0.018000
v -0.041616 0.017727 0.018000
v -0.026662 0.022256 0.018000
v -0.032402 0.031563 0.018000
v -0.015305 0.031176 0.018000
v 0.041616 -0.017727 0.018000
v 0.026662 -0.022256 0.018000
v 0.033409 -0.009487 0.018000
v 0.044975 -0.003643 0.018000
v 0.034476 0.003166 0.018000
v 0.044559 0.006588 0.018000
v 0.041137 0.018812 0.018000
v 0.031176 0.015305 0.018000
v 0.022256 0.026662 0.018000
v 0.031563 0.032402 0.018000
v 0.009487 0.033409 0.018000
v 0.034706 -0.001301 -0.000000
v 0.032783 0.011130 0.000000
v 0.026662 0.022256 0.000000
v 0.015305 0.031176 0.000000
v 0.001301 0.034706 0.000000
v -0.011130 0.032783 0.000000
v -0.022256 0.026662 0.000000
v -0.029143 0.018544 0.000000
v -0.033064 0.010265 0.000000
v -0.034652 -0.002333 -0.000000
v -0.030707 -0.016226 -0.000000
v -0.024198 -0.024651 -0.000000
v -0.015305 -0.031176 -0.000000
v -0.001301 -0.034706 -0.000000
v 0.011130 -0.032783 -0.000000
v 0.022256 -0.026662 -0.000000
v 0.031176 -0.015305 -0.000000
v 0.032783 0.011130 0.000000
v 0.026662 0.022256 0.000000
v 0.042475 -0.003545 0.024000
v 0.042058 0.006409 0.024000
v -0.041137 0.018812 0.024000
v -0.044879 0.004684 0.024000
v -0.001873 0.007382 0.124003
v 0.003120 0.006947 0.124002
v -0.010543 0.041299 0.024000
v 0.001520 0.042596 0.024000
v 0.006588 -0.044559 0.018000
v -0.003643 -0.044975 0.018000
v 0.039109 -0.017226 0.024000
v -0.019231 0.038163 0.063984
v -0.005757 0.042233 0.063977
v 0.042399 -0.004374 0.063978
v 0.038713 -0.018098 0.063989
v -0.026662 0.022256 0.018000
v -0.015305 0.031176 0.018000
v -0.042379 -0.004558 0.024000
v -0.042160 0.005700 0.024000
v 0.044879 -0.004684 0.024000
v 0.041137 -0.018812 0.024000
v 0.032402 -0.031563 0.018000
v 0.018812 -0.041137 0.018000
v 0.041616 -0.017727 0.018000
v 0.044975 -0.003643 0.018000
v 0.026662 -0.022256 0.018000
v 0.033409 -0.009487 0.018000
v -0.017727 -0.041616 0.018000
v -0.038629 -0.018276 0.024000
v 0.017727 0.041616 0.018000
v 0.031563 0.032402 0.018000
v 0.031917 0.028130 0.024000
v 0.038629 0.018276 0.024000
v 0.029490 0.030667 0.063955
v 0.034684 0.024644 0.063928
v 0.041137 0.018812 0.018000
v -0.003166 0.034476 0.018000
v -0.015305 -0.031176 -0.000000
v -0.001301 -0.034706 -0.000000
v 0.005757 -0.042233 0.063977
v -0.008486 -0.041883 0.063978
v 0.031563 -0.032402 0.024000
v 0.003166 -0.034476 0.018000
v 0.015305 -0.031176 0.018000
v -0.039109 0.017226 0.024000
v 0.044559 0.006588 0.018000
v 0.011130 -0.032783 -0.000000
v -0.021577 -0.036759 0.063976
v -0.042399 0.004374 0.063978
v -0.038713 0.018098 0.063989
v -0.044661 -0.005858 0.024000
v -0.031563 -0.032402 0.018000
v -0.034652 -0.002333 -0.000000
v -0.030707 -0.016226 -0.000000
v 0.015305 0.031176 0.000000
v 0.001301 0.034706 0.000000
v -0.017727 0.041616 0.024000
v -0.031563 0.032402 0.024000
v 0.022616 0.036260 0.024000
v 0.005858 -0.044661 0.024000
v 0.017727 -0.041616 0.024000
v 0.034706 -0.001301 -0.000000
v -0.030628 0.029643 0.063977
v -0.039681 -0.015563 0.063975
v -0.042135 -0.005897 0.063949
v 0.032402 0.031563 0.024000
v 0.041616 0.017727 0.024000
v -0.029070 -0.031324 0.024000
v 0.003643 0.044975 0.018000
v 0.006309 0.004125 0.124001
v -0.031176 -0.015305 0.018000
v -0.034476 -0.003166 0.018000
v -0.022256 0.026662 0.000000
v -0.029143 0.018544 0.000000
v -0.006056 0.004620 0.124002
v 0.007617 0.000144 0.124002
v 0.006056 -0.004620 0.124002
v -0.033409 0.009487 0.018000
v 0.031176 0.015305 0.018000
v 0.022256 0.026662 0.018000
v 0.030628 -0.029643 0.063977
v 0.019231 -0.038163 0.063984
v 0.022256 -0.026662 -0.000000
v 0.031176 -0.015305 -0.000000
v 0.010543 -0.041299 0.024000
v -0.001520 -0.042596 0.024000
v -0.011130 0.032783 0.000000
v -0.009487 -0.033409 0.018000
v -0.022256 -0.026662 0.018000
v -0.041137 -0.018812 0.018000
v -0.044559 -0.006588 0.018000
v -0.032402 -0.031563 0.024000
v -0.018812 -0.041137 0.024000
v 0.011642 0.040920 0.024000
v -0.032568 -0.027668 0.063973
v -0.007617 -0.000144 0.124002
v -0.006309 -0.004126 0.124001
v -0.044975 0.003643 0.018000
v 0.021577 0.036759 0.063975
v -0.032386 0.027589 0.024000
v -0.023588 0.035635 0.024000
v 0.014663 0.042590 0.024000
v 0.004684 0.044879 0.024000
v -0.033064 0.010265 0.000000
v 0.008486 0.041883 0.063978
v -0.041616 0.017727 0.018000
v -0.015345 -0.039884 0.024000
v -0.041616 -0.017727 0.024000
v 0.032386 -0.027588 0.024000
v 0.023588 -0.035635 0.024000
v -0.004684 -0.044879 0.024000
v 0.009487 0.033409 0.018000
v -0.005858 0.044661 0.024000
v 0.022239 0.039171 0.024000
v 0.039681 0.015563 0.063975
v -0.003120 -0.006947 0.124002
v 0.001873 -0.007382 0.124003
v -0.024198 -0.024651 -0.000000
v -0.018812 0.041137 0.018000
v -0.006588 0.044559 0.018000
v 0.034476 0.003166 0.018000
v -0.032402 0.031563 0.018000
v 0.044661 0.005858 0.024000
v 0.042135 0.005897 0.063949
vn 0.000100 -0.000500 1.000000
vn 0.000000 -0.000200 1.000000
vn 0.000000 -0.000100 1.000000
vn 0.000100 0.000100 1.000000
vn 0.000000 0.000100 1.000000
vn -0.000000 0.000000 1.000000
vn -0.000100 -0.000100 1.000000
vn -0.000100 0.000500 1.000000
vn 0.000000 0.000200 1.000000
vn 0.995100 -0.098900 -0.001900
vn 0.993000 -0.117800 0.002400
vn 0.917800 -0.396900 -0.002600
vn 0.906500 -0.422200 0.004300
vn 0.764100 -0.645100 -0.004700
vn 0.719700 -0.694200 0.008700
vn 0.545700 -0.837900 -0.008700
vn 0.450000 -0.892900 0.010500
vn 0.254300 -0.967100 -0.009800
vn 0.134400 -0.990800 0.010700
vn -0.041400 -0.999100 -0.010300
vn -0.196800 -0.980400 0.011500
vn -0.366800 -0.930200 -0.012700
vn -0.507700 -0.861400 0.011400
vn -0.680000 -0.733100 -0.013100
vn -0.762000 -0.647500 0.009600
vn -0.901800 -0.432100 -0.009200
vn -0.926600 -0.376000 0.003800
vn -0.992500 -0.121700 -0.005100
vn -0.990300 -0.139100 0.001400
vn -0.992900 0.118600 0.003700
vn -0.989800 0.142100 -0.001200
vn -0.915100 0.403300 -0.000200
vn -0.906500 0.422200 0.004300
vn -0.764100 0.645100 -0.004700
vn -0.719700 0.694200 0.008700
vn -0.545700 0.837900 -0.008700
vn -0.450000 0.892900 0.010500
vn -0.254300 0.967100 -0.009800
vn -0.134400 0.990800 0.010700
vn 0.028300 0.999500 -0.008000
vn 0.202200 0.979300 0.005200
vn 0.285000 0.958500 -0.000600
vn 0.526900 0.849900 0.000200
vn 0.489800 0.871800 0.001800
vn 0.687400 0.726300 0.003900
vn 0.748300 0.663400 -0.007200
vn 0.820200 0.571900 0.005600
vn 0.905100 0.425200 -0.005900
vn 0.931200 0.364500 0.004500
vn 0.987200 0.159300 -0.003300
vn 0.990500 0.137000 0.001600
vn 0.855800 0.119000 0.503300
vn 0.803000 0.316900 0.504700
vn 0.852000 0.000200 0.523500
vn 0.714200 0.470100 0.518500
vn 0.709000 0.493700 0.503500
vn 0.594500 0.626200 0.504300
vn 0.426900 0.750700 0.504100
vn 0.336400 0.782600 0.523800
vn 0.169500 0.846100 0.505400
vn -0.114600 0.855900 0.504300
vn -0.209100 0.824600 0.525700
vn -0.389800 0.769800 0.505400
vn -0.619200 0.601800 0.504300
vn -0.676300 0.516100 0.525500
vn -0.782300 0.364000 0.505500
vn -0.857400 0.101300 0.504500
vn -0.852000 -0.000200 0.523500
vn 0.857400 -0.101300 0.504500
vn -0.855800 -0.119000 0.503300
vn -0.799300 -0.326500 0.504500
vn -0.714300 -0.471100 0.517500
vn -0.656400 -0.559800 0.505700
vn -0.438900 -0.743600 0.504300
vn -0.337400 -0.782800 0.522800
vn -0.169500 -0.846100 0.505400
vn 0.114600 -0.855900 0.504300
vn 0.209100 -0.824600 0.525700
vn 0.389800 -0.769700 0.505400
vn 0.619200 -0.601800 0.504300
vn 0.676300 -0.516100 0.525500
vn 0.782300 -0.364000 0.505500
vn 0.000100 -0.000100 1.000000
vn -0.000900 -0.005500 1.000000
vn 0.000100 0.000000 1.000000
vn -0.000100 0.000000 1.000000
vn 0.000000 0.000000 -1.000000
vn 0.995400 0.093800 0.018300
vn 0.998900 -0.042700 -0.018800
vn 0.947500 0.319200 -0.018300
vn 0.895200 0.445300 0.018800
vn 0.764100 0.644800 -0.018800
vn 0.640100 0.767900 0.021600
vn 0.441200 0.897200 -0.021600
vn 0.278300 0.960300 0.018800
vn 0.042700 0.998900 -0.018800
vn -0.093800 0.995400 0.018300
vn -0.319200 0.947500 -0.018300
vn -0.445300 0.895200 0.018800
vn -0.633400 0.773600 -0.013500
vn -0.770400 0.637100 0.022300
vn -0.845500 0.533900 -0.005500
vn -0.960700 0.277300 0.010600
vn -0.958600 0.284500 -0.006100
vn -0.997100 -0.075700 -0.005400
vn -0.995400 -0.095700 0.005300
vn -0.895700 -0.444700 0.002100
vn -0.888900 -0.458100 0.002200
vn -0.646900 -0.762400 0.016400
vn -0.708000 -0.706200 -0.002500
vn -0.430500 -0.902400 -0.016100
vn -0.278300 -0.960300 0.018800
vn -0.042700 -0.998900 -0.018800
vn 0.093800 -0.995400 0.018300
vn 0.319200 -0.947500 -0.018300
vn 0.445300 -0.895200 0.018800
vn 0.644900 -0.764100 -0.018800
vn 0.767900 -0.640100 0.021600
vn 0.897200 -0.441200 -0.021600
vn 0.960300 -0.278300 0.018800
vn 0.996000 -0.089100 -0.005800
vn 0.992300 -0.123700 0.002500
vn 0.921200 -0.389000 -0.004900
vn 0.901900 -0.431900 0.002600
vn 0.724100 -0.689700 -0.003900
vn 0.689700 -0.724100 0.003900
vn 0.437500 -0.899200 -0.001400
vn 0.396300 -0.918100 0.005500
vn 0.156700 -0.987600 -0.004500
vn 0.133700 -0.991000 0.005600
vn -0.089100 -0.996000 -0.005800
vn -0.123700 -0.992300 0.002500
vn -0.389000 -0.921200 -0.005000
vn -0.431900 -0.901900 0.002600
vn -0.689700 -0.724100 -0.003900
vn -0.724100 -0.689700 0.003900
vn -0.899200 -0.437500 -0.001300
vn -0.918100 -0.396200 0.005500
vn -0.987600 -0.156700 -0.004500
vn -0.991000 -0.133700 0.005600
vn -0.996000 0.089100 -0.005800
vn -0.992300 0.123700 0.002500
vn -0.921200 0.389000 -0.004900
vn -0.901900 0.431900 0.002600
vn -0.724100 0.689700 -0.003900
vn -0.689700 0.724100 0.003900
vn -0.437500 0.899200 -0.001400
vn -0.396300 0.918100 0.005500
vn -0.156700 0.987600 -0.004500
vn -0.133700 0.991000 0.005600
vn 0.089100 0.996000 -0.005800
vn 0.119200 0.992800 -0.007500
vn 0.391100 0.920300 -0.010500
vn 0.289400 0.957200 -0.007600
vn 0.523300 0.851800 -0.023000
vn 0.697400 0.716500 -0.015400
vn 0.732700 0.680500 0.001300
vn 0.899200 0.437500 -0.001300
vn 0.918100 0.396200 0.005500
vn 0.987600 0.156700 -0.004500
vn 0.991000 0.133700 0.005600
s 1
f 134//1 133//2 3//3
f 134//1 3//3 4//4
f 4//4 3//3 5//5
f 5//5 3//3 6//3
f 5//5 6//3 7//6
f 7//6 6//3 8//7
f 7//6 8//7 9//8
f 7//6 9//8 10//9
f 129//10 142//11 139//12
f 139//12 142//11 143//13
f 139//12 143//13 15//14
f 15//14 143//13 16//15
f 15//14 16//15 17//16
f 17//16 16//15 18//17
f 17//16 18//17 213//18
f 213//18 18//17 20//19
f 213//18 20//19 214//20
f 214//20 20//19 169//21
f 214//20 169//21 23//22
f 23//22 169//21 176//23
f 23//22 176//23 25//24
f 25//24 176//23 26//25
f 25//24 26//25 157//26
f 157//26 26//25 192//27
f 157//26 192//27 146//28
f 146//28 192//27 30//29
f 146//28 30//29 31//30
f 146//28 31//30 147//31
f 147//31 31//30 173//32
f 173//32 31//30 178//33
f 173//32 178//33 228//34
f 228//34 178//33 191//35
f 228//34 191//35 37//36
f 37//36 191//35 140//37
f 37//36 140//37 135//38
f 135//38 140//37 141//39
f 135//38 141//39 136//40
f 136//40 141//39 233//41
f 136//40 233//41 43//42
f 43//42 233//41 187//43
f 187//43 233//41 45//44
f 187//43 45//44 46//45
f 187//43 46//45 160//46
f 160//46 46//45 163//47
f 160//46 163//47 161//48
f 161//48 163//47 243//49
f 161//48 243//49 130//50
f 130//50 243//49 252//51
f 130//50 252//51 129//10
f 129//10 252//51 142//11
f 52//52 50//53 204//54
f 204//54 50//53 198//55
f 48//56 162//57 198//55
f 50//53 48//56 198//55
f 162//57 227//58 2//59
f 198//55 162//57 2//59
f 227//58 42//60 2//59
f 42//60 40//61 1//62
f 2//59 42//60 1//62
f 40//61 38//63 1//62
f 38//63 36//64 203//65
f 1//62 38//63 203//65
f 36//64 34//66 203//65
f 34//66 177//67 224//68
f 203//65 34//66 224//68
f 204//54 12//69 52//52
f 193//70 28//71 224//68
f 224//68 28//71 225//72
f 28//71 223//73 225//72
f 223//73 24//74 244//75
f 225//72 223//73 244//75
f 24//74 22//76 244//75
f 22//76 168//77 245//78
f 244//75 22//76 245//78
f 168//77 210//79 245//78
f 210//79 209//80 205//81
f 245//78 210//79 205//81
f 209//80 14//82 205//81
f 14//82 12//69 204//54
f 205//81 14//82 204//54
f 224//68 177//67 193//70
f 221//6 239//6 21//6
f 54//6 189//6 239//6
f 239//6 189//6 21//6
f 230//6 57//6 41//6
f 41//6 57//6 58//6
f 58//6 57//6 59//6
f 41//6 58//6 39//6
f 39//6 58//6 229//6
f 229//6 58//6 60//6
f 229//6 60//6 35//83
f 35//83 60//6 33//6
f 33//6 60//6 131//6
f 33//6 131//6 32//6
f 32//6 131//6 132//6
f 32//6 132//6 29//6
f 29//6 132//6 179//6
f 29//6 179//6 27//6
f 27//6 179//6 236//6
f 27//6 236//6 196//6
f 196//6 236//6 65//6
f 196//6 65//6 235//6
f 235//6 65//6 221//6
f 235//6 221//6 21//6
f 230//6 41//6 66//6
f 66//6 41//6 222//84
f 66//6 222//84 44//6
f 66//6 44//6 67//6
f 67//6 44//6 47//85
f 67//6 47//85 68//6
f 68//6 47//85 49//6
f 68//6 49//6 69//6
f 69//6 49//6 51//6
f 69//6 51//6 148//6
f 148//6 51//6 11//6
f 148//6 11//6 149//6
f 149//6 11//6 13//6
f 149//6 13//6 170//6
f 170//6 13//6 237//86
f 170//6 237//86 238//6
f 170//6 238//6 189//6
f 189//6 238//6 19//6
f 19//6 21//6 189//6
f 74//87 75//87 76//87
f 78//87 150//87 151//87
f 78//87 151//87 137//87
f 78//87 137//87 138//87
f 78//87 138//87 156//87
f 78//87 156//87 75//87
f 75//87 74//87 78//87
f 84//87 158//87 108//87
f 84//87 108//87 240//87
f 84//87 240//87 165//87
f 84//87 165//87 250//87
f 84//87 250//87 87//87
f 84//87 87//87 88//87
f 76//87 75//87 89//87
f 76//87 89//87 199//87
f 199//87 89//87 200//87
f 200//87 89//87 219//87
f 200//87 219//87 93//87
f 200//87 93//87 94//87
f 94//87 93//87 234//87
f 94//87 234//87 144//87
f 144//87 234//87 250//87
f 144//87 250//87 145//87
f 145//87 250//87 165//87
f 172//87 150//87 78//87
f 150//87 172//87 152//87
f 152//87 172//87 154//87
f 152//87 154//87 155//87
f 152//87 155//87 153//87
f 153//87 155//87 249//87
f 153//87 249//87 174//87
f 174//87 249//87 164//87
f 164//87 249//87 207//87
f 164//87 207//87 208//87
f 164//87 208//87 108//87
f 108//87 208//87 240//87
f 103//88 110//89 127//90
f 103//88 127//90 106//91
f 106//91 127//90 128//92
f 106//91 128//92 107//93
f 107//93 128//92 113//94
f 107//93 113//94 109//95
f 109//95 113//94 184//96
f 109//95 184//96 86//97
f 86//97 184//96 215//98
f 86//97 215//98 98//99
f 98//99 215//98 116//100
f 98//99 116//100 96//101
f 96//101 116//100 202//102
f 96//101 202//102 206//103
f 206//103 202//102 118//104
f 206//103 118//104 181//105
f 206//103 181//105 91//106
f 91//106 181//105 90//107
f 90//107 181//105 120//108
f 90//107 120//108 217//109
f 217//109 120//108 246//110
f 217//109 246//110 122//111
f 217//109 122//111 216//112
f 216//112 122//111 167//113
f 216//112 167//113 171//114
f 171//114 167//113 175//115
f 171//114 175//115 79//116
f 79//116 175//115 125//117
f 79//116 125//117 100//118
f 100//118 125//117 126//119
f 100//118 126//119 101//120
f 101//120 126//119 110//89
f 101//120 110//89 103//88
f 102//121 70//122 99//123
f 99//123 70//122 71//124
f 99//123 71//124 77//125
f 77//125 71//124 72//126
f 77//125 72//126 80//127
f 80//127 72//126 73//128
f 80//127 73//128 81//129
f 81//129 73//128 188//130
f 81//129 188//130 82//131
f 82//131 188//130 53//132
f 82//131 53//132 83//133
f 83//133 53//132 55//134
f 83//133 55//134 180//135
f 180//135 55//134 220//136
f 180//135 220//136 218//137
f 218//137 220//136 64//138
f 218//137 64//138 92//139
f 92//139 64//138 63//140
f 92//139 63//140 226//141
f 226//141 63//140 62//142
f 226//141 62//142 95//143
f 95//143 62//142 61//144
f 95//143 61//144 97//145
f 97//145 61//144 186//146
f 97//145 186//146 247//147
f 247//147 186//146 185//148
f 247//147 185//148 248//149
f 248//149 185//148 241//150
f 248//149 241//150 197//151
f 197//151 241//150 231//152
f 197//151 231//152 85//153
f 85//153 231//152 56//154
f 85//153 56//154 242//155
f 85//153 242//155 159//156
f 159//156 242//155 194//157
f 159//156 194//157 105//158
f 105//158 194//157 195//159
f 105//158 195//159 104//160
f 104//160 195//159 251//161
f 104//160 251//161 102//121
f 102//121 251//161 70//122
f 124//87 123//87 166//87
f 124//87 166//87 211//87
f 211//87 166//87 121//87
f 211//87 121//87 212//87
f 212//87 121//87 182//87
f 212//87 182//87 190//87
f 190//87 182//87 119//87
f 190//87 119//87 111//87
f 111//87 119//87 232//87
f 111//87 232//87 112//87
f 112//87 232//87 117//87
f 112//87 117//87 201//87
f 112//87 201//87 183//87
f 183//87 201//87 115//87
f 183//87 115//87 114//87
