# Blender v2.76 (sub 0) OBJ File: 'arm.blend'
# www.blender.org
v 0.198945 0.092000 -0.086108
v 0.216223 0.092000 0.030722
v 0.238946 0.092000 0.029674
v 0.010962 0.092000 0.070117
v 0.033352 0.092000 0.077476
v 0.255175 0.092000 0.008319
v 0.240125 0.092000 -0.070631
v 0.070337 0.092001 -0.065888
v 0.047022 0.092000 -0.057385
v 0.024286 0.092000 -0.047452
v 0.002203 0.092000 -0.036126
v -0.016093 0.092000 -0.025280
v -0.019608 0.092000 -0.022009
v -0.022986 0.092000 -0.016453
v -0.024282 0.092000 -0.009883
v -0.023644 0.092000 -0.003865
v 0.009133 0.092000 0.066909
v 0.068542 0.092002 0.062645
v 0.101614 0.092000 0.051252
v 0.134445 0.092000 0.042577
v 0.161469 0.092000 0.037123
v 0.253486 0.092000 0.018209
v 0.255017 0.092000 0.013093
v 0.244445 0.092000 0.027750
v 0.188759 0.092000 0.033167
v 0.249754 0.092000 0.023864
v 0.014534 0.092000 0.073937
v 0.018972 0.092000 0.076702
v 0.224143 0.092000 -0.084917
v 0.167489 0.092000 -0.085045
v 0.228796 0.092000 -0.083568
v 0.147875 0.092000 -0.083127
v 0.234435 0.092000 -0.080007
v 0.130531 0.092000 -0.080696
v 0.106184 0.092001 -0.075895
v 0.238393 0.092000 -0.074879
v 0.087101 0.092000 -0.070970
v 0.029203 0.092000 0.078401
v 0.023975 0.092000 0.078225
v 0.195841 -0.092000 -0.086121
v 0.239036 -0.092000 0.029693
v 0.213793 -0.092000 0.030877
v 0.033738 -0.092000 0.077358
v 0.011237 -0.092000 0.070492
v 0.255143 -0.092000 0.007962
v -0.023498 -0.092000 -0.003381
v -0.024294 -0.092000 -0.009414
v -0.023219 -0.092000 -0.015827
v -0.019905 -0.092000 -0.021646
v -0.016418 -0.092000 -0.025035
v 0.000292 -0.092000 -0.035062
v 0.022308 -0.092000 -0.046507
v 0.044994 -0.092000 -0.056565
v 0.068262 -0.091999 -0.065195
v 0.240024 -0.092000 -0.070969
v 0.009133 -0.092000 0.066909
v 0.255085 -0.092000 0.012623
v 0.253676 -0.092000 0.017775
v 0.159075 -0.092000 0.037544
v 0.132069 -0.092000 0.043130
v 0.098316 -0.092000 0.052265
v 0.066277 -0.092000 0.063520
v 0.244864 -0.092000 0.027526
v 0.250213 -0.092000 0.023368
v 0.186342 -0.092001 0.033456
v 0.019398 -0.092000 0.076890
v 0.014896 -0.092000 0.074228
v 0.228363 -0.092000 -0.083748
v 0.165301 -0.092000 -0.084884
v 0.223742 -0.092000 -0.084981
v 0.238163 -0.092000 -0.075286
v 0.104050 -0.092000 -0.075400
v 0.233936 -0.092000 -0.080448
v 0.128368 -0.092000 -0.080333
v 0.147875 -0.092000 -0.083127
v 0.087101 -0.092000 -0.070970
v 0.029665 -0.092000 0.078351
v 0.024435 -0.092000 0.078296
v 0.115766 0.092000 0.002227
v -0.007182 -0.092000 0.031764
v 0.247584 -0.092000 -0.031503
v -0.007256 0.092000 0.031522
v -0.007182 0.000000 0.031764
v 0.132138 -0.092000 0.037436
v 0.132154 0.092000 0.037614
v 0.154143 -0.092000 -0.068082
v 0.247634 0.000000 -0.031334
v -0.023571 0.000000 -0.003623
v 0.155231 0.092000 -0.068260
v 0.255159 0.000000 0.008141
v 0.009133 0.000000 0.066909
v 0.247650 0.092000 -0.031156
v 0.115823 -0.092000 0.002291
v 0.161703 -0.092000 -0.028616
v 0.240075 0.000000 -0.070800
v 0.162756 0.092000 -0.028785
v 0.046061 0.092000 -0.000819
v 0.000975 -0.092000 0.049337
v 0.243804 -0.092000 -0.051236
v 0.000939 0.092000 0.049216
v -0.015340 -0.046000 0.014192
v 0.070635 -0.092000 0.052172
v 0.070643 0.092000 0.052262
v 0.197084 -0.092000 -0.069525
v 0.251389 -0.046000 -0.011686
v 0.069300 0.000001 -0.065542
v -0.023534 -0.046000 -0.003502
v 0.112784 0.092000 -0.067074
v 0.255151 -0.046000 0.008051
v 0.009133 -0.046000 0.066909
v 0.243887 0.092000 -0.050894
v 0.046163 -0.092000 -0.000545
v 0.114982 -0.092000 -0.046906
v 0.240049 -0.046000 -0.070884
v 0.116547 0.092000 -0.047337
v 0.185470 0.092000 0.005273
v -0.015340 -0.092000 0.014192
v 0.251364 -0.092000 -0.011770
v -0.015450 0.092000 0.013829
v 0.000975 0.046000 0.049337
v 0.193641 -0.092000 0.022699
v 0.193664 0.092000 0.022966
v 0.111203 -0.092000 -0.066638
v 0.243879 0.046000 -0.050983
v -0.023607 0.046000 -0.003744
v 0.197678 0.092000 -0.069445
v 0.255167 0.046000 0.008230
v 0.009133 0.046000 0.066909
v 0.251412 0.092000 -0.011419
v 0.185483 -0.092000 0.005126
v 0.208423 -0.092000 -0.010327
v 0.240100 0.046000 -0.070715
v 0.208966 0.092000 -0.010233
v -0.015413 0.046000 0.013950
v -0.015377 0.000000 0.014071
v -0.007219 0.046000 0.031643
v -0.007182 -0.046000 0.031764
v 0.000975 -0.046000 0.049337
v 0.000975 0.000000 0.049337
v 0.251404 0.046000 -0.011508
v 0.251397 0.000000 -0.011597
v 0.247642 0.046000 -0.031245
v 0.247609 -0.046000 -0.031419
v 0.243829 -0.046000 -0.051152
v 0.243854 0.000000 -0.051067
v 0.123980 -0.092000 0.019863
v 0.062478 -0.092000 0.034600
v 0.054320 -0.092000 0.017028
v 0.200863 -0.092000 -0.049793
v 0.204643 -0.092000 -0.030060
v 0.157923 -0.092000 -0.048349
v 0.054255 0.092000 0.016875
v 0.062449 0.092000 0.034568
v 0.123960 0.092000 0.019921
v 0.158994 0.092000 -0.048522
v 0.205203 0.092000 -0.029970
v 0.201440 0.092000 -0.049708
v 0.011300 -0.092000 -0.040784
v 0.127718 -0.092000 -0.013550
v -0.008063 -0.092000 -0.030048
v 0.138726 -0.092000 -0.019272
v 0.056628 -0.092000 -0.060880
v 0.150069 -0.092000 -0.024302
v 0.033651 -0.092000 -0.051536
v 0.119363 -0.092000 -0.008536
v 0.091622 -0.092000 -0.056050
v 0.185063 -0.092000 -0.019472
v 0.138343 -0.092000 -0.037761
v 0.231783 -0.092000 -0.001182
v 0.151098 0.092000 -0.024533
v 0.035654 0.092000 -0.052419
v 0.139731 0.092000 -0.019567
v 0.013245 0.092000 -0.041789
v 0.128689 0.092000 -0.013904
v -0.006945 0.092000 -0.030703
v 0.119541 0.092000 -0.008480
v 0.093442 0.092000 -0.056612
v 0.058680 0.092000 -0.061637
v 0.185861 0.092000 -0.019509
v 0.139651 0.092000 -0.038061
v 0.232070 0.092000 -0.000957
v 0.011237 -0.092000 0.070492
v 0.014896 -0.092000 0.074228
v 0.130531 0.092000 -0.080696
v 0.106184 0.092001 -0.075895
v 0.128368 -0.092000 -0.080333
v 0.147875 -0.092000 -0.083127
v -0.024294 -0.092000 -0.009414
v -0.023219 -0.092000 -0.015827
v 0.132069 -0.092000 0.043130
v 0.098316 -0.092000 0.052265
v 0.195841 -0.092000 -0.086121
v 0.165301 -0.092000 -0.084884
v 0.000975 -0.092000 0.049337
v 0.009133 -0.092000 0.066909
v 0.216223 0.092000 0.030722
v 0.188759 0.092000 0.033167
v 0.198945 0.092000 -0.086108
v 0.224143 0.092000 -0.084917
v 0.238163 -0.092000 -0.075286
v 0.233936 -0.092000 -0.080448
v 0.033352 0.092000 0.077476
v 0.029203 0.092000 0.078401
v 0.010962 0.092000 0.070117
v 0.009133 0.092000 0.066909
v 0.033738 -0.092000 0.077358
v 0.029665 -0.092000 0.078351
v 0.011300 -0.092000 -0.040784
v 0.022308 -0.092000 -0.046507
v 0.022308 -0.092000 -0.046507
v 0.022308 -0.092000 -0.046507
v 0.070337 0.092001 -0.065888
v 0.087101 0.092000 -0.070970
v 0.134445 0.092000 0.042577
v 0.161469 0.092000 0.037123
v 0.014534 0.092000 0.073937
v 0.018972 0.092000 0.076702
v -0.019608 0.092000 -0.022009
v -0.022986 0.092000 -0.016453
v 0.243804 -0.092000 -0.051236
v 0.240024 -0.092000 -0.070969
v 0.000939 0.092000 0.049216
v 0.167489 0.092000 -0.085045
v 0.035654 0.092000 -0.052419
v 0.024286 0.092000 -0.047452
v 0.024286 0.092000 -0.047452
v 0.024286 0.092000 -0.047452
v 0.228363 -0.092000 -0.083748
v 0.223742 -0.092000 -0.084981
v 0.255143 -0.092000 0.007962
v 0.255085 -0.092000 0.012623
v 0.239036 -0.092000 0.029693
v 0.244864 -0.092000 0.027526
v 0.147875 0.092000 -0.083127
v 0.213793 -0.092000 0.030877
v 0.024435 -0.092000 0.078296
v 0.234435 0.092000 -0.080007
v 0.238393 0.092000 -0.074879
v 0.104050 -0.092000 -0.075400
v 0.087101 -0.092000 -0.070970
v -0.008063 -0.092000 -0.030048
v 0.000292 -0.092000 -0.035062
v 0.000292 -0.092000 -0.035062
v 0.000292 -0.092000 -0.035062
v 0.250213 -0.092000 0.023368
v 0.253676 -0.092000 0.017775
v 0.253486 0.092000 0.018209
v 0.255017 0.092000 0.013093
v 0.013245 0.092000 -0.041789
v 0.002203 0.092000 -0.036126
v 0.002203 0.092000 -0.036126
v 0.002203 0.092000 -0.036126
v 0.240125 0.092000 -0.070631
v 0.019398 -0.092000 0.076890
v 0.068542 0.092002 0.062645
v 0.101614 0.092000 0.051252
v -0.024282 0.092000 -0.009883
v -0.023644 0.092000 -0.003865
v 0.066277 -0.092000 0.063520
v 0.023975 0.092000 0.078225
v 0.228796 0.092000 -0.083568
v -0.019905 -0.092000 -0.021646
v -0.016418 -0.092000 -0.025035
v -0.016418 -0.092000 -0.025035
v 0.056628 -0.092000 -0.060880
v 0.068262 -0.091999 -0.065195
v 0.068262 -0.091999 -0.065195
v 0.255175 0.092000 0.008319
v 0.249754 0.092000 0.023864
v -0.006945 0.092000 -0.030703
v -0.016093 0.092000 -0.025280
v -0.016093 0.092000 -0.025280
v 0.244445 0.092000 0.027750
v 0.238946 0.092000 0.029674
v 0.186342 -0.092001 0.033456
v -0.023498 -0.092000 -0.003381
v 0.159075 -0.092000 0.037544
v 0.243887 0.092000 -0.050894
v 0.033651 -0.092000 -0.051536
v 0.044994 -0.092000 -0.056565
v 0.044994 -0.092000 -0.056565
v 0.044994 -0.092000 -0.056565
v 0.058680 0.092000 -0.061637
v 0.047022 0.092000 -0.057385
v 0.047022 0.092000 -0.057385
v -0.015340 -0.092000 0.014192
v -0.007182 -0.092000 0.031764
v 0.251364 -0.092000 -0.011770
v 0.247584 -0.092000 -0.031503
v -0.015450 0.092000 0.013829
v -0.007256 0.092000 0.031522
v 0.251412 0.092000 -0.011419
v 0.247650 0.092000 -0.031156
vn 0.000000 1.000000 0.000000
vn -0.000000 1.000000 -0.000300
vn 0.000000 1.000000 0.000100
vn 0.000100 1.000000 0.001000
vn -0.000100 1.000000 -0.000900
vn 0.000000 1.000000 -0.000100
vn 0.000000 1.000000 0.000200
vn 0.000000 -1.000000 0.000000
vn 0.000000 -1.000000 -0.000100
vn 0.000200 -1.000000 0.002000
vn -0.000500 -1.000000 -0.003700
vn 0.000000 -1.000000 0.000100
vn 0.955900 -0.000200 -0.293800
vn 0.958800 0.000000 -0.284200
vn 0.982100 -0.000200 -0.188100
vn 0.996100 -0.000100 -0.088300
vn 0.982200 0.000000 -0.187700
vn 0.996100 0.000000 -0.087900
vn 0.231900 0.000400 0.972700
vn 0.290700 -0.000400 0.956800
vn 0.296600 0.000400 0.955000
vn 0.357300 -0.000400 0.934000
vn 0.361600 0.000300 0.932300
vn 0.304400 0.000000 0.952500
vn 0.315200 0.000000 0.949000
vn 0.226700 -0.000300 0.973900
vn 0.175500 0.000300 0.984500
vn 0.170700 -0.000300 0.985300
vn 0.120900 0.000300 0.992600
vn 0.116100 -0.000300 0.993200
vn 0.070200 0.000200 0.997500
vn 0.067200 -0.000100 0.997700
vn 0.199800 -0.000000 0.979800
vn 0.190100 0.000200 0.981700
vn 0.465500 0.000300 0.885000
vn 0.486700 -0.000500 0.873600
vn 0.724000 0.000500 0.689800
vn 0.743800 -0.000500 0.668400
vn 0.906000 0.000400 0.423200
vn 0.916800 -0.000300 0.399200
vn 0.986900 0.000300 0.161200
vn 0.990200 -0.000200 0.139200
vn 0.997000 0.000200 -0.077500
vn -0.609800 -0.000200 -0.792600
vn -0.599000 0.000200 -0.800700
vn -0.488100 -0.000200 -0.872700
vn 0.000000 0.000000 1.000000
vn -0.483400 0.000300 -0.875400
vn -0.433500 -0.000300 -0.901200
vn 0.022300 0.930600 -0.365400
vn 0.228400 0.865200 -0.446300
vn -0.428500 0.000300 -0.903500
vn -0.376700 -0.000300 -0.926300
vn 0.397800 0.778400 -0.485500
vn -0.371700 0.000300 -0.928300
vn -0.320500 -0.000300 -0.947200
vn -0.342600 0.000300 -0.939500
vn -0.316400 0.000100 -0.948600
vn -0.317900 0.000000 -0.948100
vn -0.272900 -0.000100 -0.962000
vn -0.270100 0.000100 -0.962800
vn -0.226000 -0.000200 -0.974100
vn -0.221700 0.000300 -0.975100
vn -0.170400 -0.000300 -0.985400
vn -0.166100 0.000200 -0.986100
vn -0.121000 -0.000100 -0.992600
vn -0.118200 0.000100 -0.993000
vn -0.070500 -0.000200 -0.997500
vn -0.065700 0.000400 -0.997800
vn 0.000100 -0.000400 -1.000000
vn 0.006800 0.000400 -1.000000
vn 0.150300 -0.000400 -0.988600
vn 0.164000 0.000200 -0.986400
vn 0.387200 -0.000300 -0.922000
vn 0.410200 0.000400 -0.912000
vn 0.651500 -0.000500 -0.758600
vn 0.673100 0.000500 -0.739500
vn 0.854300 -0.000400 -0.519700
vn 0.866700 0.000200 -0.498700
vn -0.885700 -0.000100 0.464200
vn -0.888600 0.000000 0.458600
vn -0.907000 0.000000 0.421100
vn -0.960200 -0.000200 0.279300
vn -0.907200 0.000200 0.420600
vn -0.960400 0.000000 0.278700
vn -0.805100 0.000100 0.593100
vn -0.794200 -0.000300 0.607600
vn -0.635000 0.000300 0.772500
vn -0.616900 -0.000300 0.787000
vn -0.413500 0.000300 0.910500
vn -0.392300 -0.000300 0.919800
vn -0.163900 0.000300 0.986500
vn -0.140900 -0.000300 0.990000
vn 0.092700 0.000300 0.995700
vn 0.114000 -0.000200 0.993500
vn -0.999800 -0.000400 -0.017400
vn -0.963800 0.000300 0.266400
vn -0.999000 0.000400 -0.044400
vn -0.942100 -0.000500 -0.335200
vn -0.932100 0.000500 -0.362100
vn -0.790700 -0.000400 -0.612100
vn -0.775100 0.000300 -0.631800
vn -0.907400 0.000400 0.420200
vn 0.982300 0.000200 -0.187200
vn 0.958900 0.000100 -0.283700
vn -0.888800 0.000100 0.458300
vn 0.003000 -0.934400 -0.356100
vn 0.211500 -0.872200 -0.440900
vn 0.384600 -0.786300 -0.483500
vn 0.517900 -0.698000 -0.494600
s 1
f 129//1 133//1 181//1
f 115//1 285//1 170//1
f 6//1 170//1 172//1
f 6//1 172//1 174//1
f 6//1 174//1 176//1
f 176//1 12//1 13//1
f 6//1 13//1 14//1
f 6//1 14//1 15//1
f 15//1 97//1 79//1
f 205//1 4//1 5//1
f 205//1 5//1 18//2
f 205//1 18//2 256//3
f 205//1 256//3 214//1
f 205//1 214//1 215//3
f 205//1 215//3 22//1
f 205//1 22//1 248//1
f 248//1 122//1 85//1
f 205//1 103//1 222//1
f 196//4 3//3 24//1
f 215//3 25//5 269//1
f 215//3 269//1 22//1
f 5//1 4//1 216//1
f 5//1 216//1 217//1
f 199//6 1//1 223//1
f 199//6 223//1 261//1
f 261//1 223//1 32//6
f 261//1 32//6 33//1
f 33//1 32//6 184//6
f 33//1 184//6 185//7
f 33//1 185//7 238//1
f 238//1 185//7 253//1
f 253//1 185//7 37//6
f 37//6 89//1 126//1
f 269//1 25//5 24//1
f 24//1 25//5 196//4
f 5//1 217//1 203//1
f 203//1 217//1 260//6
f 93//8 112//8 188//8
f 230//8 188//8 189//8
f 230//8 189//8 49//8
f 49//8 264//8 165//8
f 230//8 165//8 159//8
f 230//8 159//8 161//8
f 230//8 161//8 163//8
f 168//8 94//8 163//8
f 169//8 131//8 118//8
f 195//8 194//8 102//8
f 84//8 121//8 57//8
f 195//8 57//8 246//8
f 195//8 246//8 277//8
f 195//8 277//8 190//8
f 195//8 190//8 191//9
f 195//8 191//9 62//8
f 195//8 62//8 206//8
f 195//8 206//8 182//8
f 42//10 63//8 41//8
f 277//8 246//8 64//8
f 277//8 64//8 65//11
f 206//8 254//8 183//8
f 206//8 183//8 182//8
f 228//8 193//9 229//9
f 229//9 193//9 40//8
f 71//8 72//8 201//8
f 201//8 72//8 186//8
f 201//8 186//8 187//8
f 201//8 187//8 228//8
f 228//8 187//8 193//9
f 72//8 71//8 55//8
f 72//8 55//8 76//12
f 76//12 86//8 123//8
f 64//8 63//8 65//11
f 65//11 63//8 42//10
f 206//8 77//8 254//8
f 254//8 77//8 78//9
f 221//13 114//14 220//15
f 45//16 105//17 109//18
f 60//19 19//20 61//21
f 61//21 19//20 255//22
f 61//21 255//22 259//23
f 259//23 255//22 202//24
f 259//23 202//24 43//25
f 19//20 60//19 20//26
f 20//26 60//19 59//27
f 20//26 59//27 21//28
f 21//28 59//27 275//29
f 21//28 275//29 197//30
f 197//30 275//29 235//31
f 197//30 235//31 2//32
f 2//32 235//31 232//33
f 2//32 232//33 274//34
f 274//34 232//33 273//35
f 273//35 232//33 233//36
f 273//35 233//36 26//37
f 26//37 233//36 245//38
f 26//37 245//38 247//39
f 247//39 245//38 58//40
f 247//39 58//40 23//41
f 23//41 58//40 231//42
f 23//41 231//42 268//43
f 231//42 109//18 90//18
f 263//44 271//45 243//46
f 272//47 270//47 11//47
f 243//46 250//48 209//49
f 251//50 249//47 10//51
f 209//49 225//52 280//53
f 226//51 224//47 9//54
f 280//53 284//55 266//56
f 178//57 212//58 106//59
f 106//59 212//58 240//60
f 240//60 212//58 213//61
f 240//60 213//61 239//62
f 239//62 213//61 35//63
f 239//62 35//63 74//64
f 74//64 35//63 34//65
f 74//64 34//65 75//66
f 75//66 34//65 234//67
f 75//66 234//67 69//68
f 69//68 234//67 30//69
f 69//68 30//69 192//70
f 192//70 30//69 198//71
f 192//70 198//71 70//72
f 70//72 198//71 29//73
f 70//72 29//73 68//74
f 68//74 29//73 31//75
f 68//74 31//75 73//76
f 73//76 31//75 237//77
f 73//76 237//77 200//78
f 200//78 237//77 36//79
f 200//78 36//79 221//13
f 36//79 95//14 114//14
f 56//80 110//81 98//82
f 276//83 101//84 107//85
f 91//81 110//81 204//86
f 204//86 56//80 44//87
f 204//86 44//87 27//88
f 27//88 44//87 67//89
f 27//88 67//89 28//90
f 28//90 67//89 66//91
f 28//90 66//91 39//92
f 39//92 66//91 236//93
f 39//92 236//93 38//94
f 38//94 236//93 207//95
f 38//94 207//95 202//24
f 202//24 207//95 43//25
f 88//85 125//85 47//96
f 47//96 16//97 257//98
f 47//96 257//98 48//99
f 48//99 257//98 219//100
f 48//99 219//100 262//101
f 262//101 219//100 218//102
f 262//101 218//102 263//44
f 263//44 218//102 271//45
f 88//85 134//103 125//85
f 88//85 135//103 134//103
f 83//84 120//84 136//103
f 287//82 137//82 286//82
f 287//82 138//82 137//82
f 91//81 128//81 139//82
f 90//18 140//104 127//18
f 90//18 141//104 140//104
f 87//17 124//17 142//104
f 289//15 143//15 288//15
f 289//15 144//15 143//15
f 95//14 132//14 145//15
f 84//8 146//8 121//8
f 84//8 147//8 146//8
f 80//8 117//8 148//8
f 81//8 149//8 99//8
f 81//8 150//8 149//8
f 168//8 113//8 151//8
f 291//1 152//1 290//1
f 291//1 153//1 152//1
f 85//1 122//1 154//1
f 155//1 115//1 180//1
f 96//1 156//1 155//1
f 92//1 278//1 157//1
f 157//1 126//1 89//1
f 157//1 278//1 126//1
f 278//1 253//1 126//1
f 155//1 157//1 89//1
f 155//1 156//1 157//1
f 156//1 92//1 157//1
f 108//1 8//1 177//1
f 115//1 155//1 108//1
f 155//1 89//1 108//1
f 154//1 116//1 79//1
f 154//1 122//1 116//1
f 122//1 6//1 116//1
f 152//1 154//1 79//1
f 152//1 153//1 154//1
f 153//1 85//1 154//1
f 290//1 97//1 258//1
f 290//1 152//1 97//1
f 152//1 79//1 97//1
f 151//8 123//8 86//8
f 151//8 113//8 123//8
f 166//8 267//8 123//8
f 149//8 151//8 86//8
f 149//8 150//8 151//8
f 150//8 94//8 151//8
f 99//8 104//8 55//8
f 99//8 149//8 104//8
f 149//8 86//8 104//8
f 148//8 112//8 93//8
f 148//8 117//8 112//8
f 117//8 46//8 112//8
f 146//8 148//8 93//8
f 146//8 147//8 148//8
f 147//8 80//8 148//8
f 121//8 130//8 230//8
f 121//8 146//8 130//8
f 146//8 93//8 130//8
f 145//15 124//17 87//17
f 145//15 132//14 124//17
f 132//14 7//105 124//17
f 143//15 145//15 87//17
f 143//15 144//15 145//15
f 144//15 95//14 145//15
f 288//15 105//17 45//16
f 288//15 143//15 105//17
f 143//15 87//17 105//17
f 142//104 111//104 293//104
f 142//104 124//17 111//104
f 124//17 7//105 111//104
f 140//104 142//104 293//104
f 140//104 141//104 142//104
f 141//104 87//17 142//104
f 127//18 292//104 268//43
f 127//18 140//104 292//104
f 140//104 293//104 292//104
f 139//82 120//84 83//84
f 139//82 128//81 120//84
f 128//81 17//106 120//84
f 137//82 139//82 83//84
f 137//82 138//82 139//82
f 138//82 91//81 139//82
f 286//82 101//84 276//83
f 286//82 137//82 101//84
f 137//82 83//84 101//84
f 136//103 100//103 82//103
f 136//103 120//84 100//103
f 120//84 17//106 100//103
f 134//103 136//103 82//103
f 134//103 135//103 136//103
f 135//103 83//84 136//103
f 125//85 119//103 16//97
f 125//85 134//103 119//103
f 134//103 82//103 119//103
f 107//85 135//103 88//85
f 107//85 101//84 135//103
f 101//84 83//84 135//103
f 98//82 138//82 287//82
f 98//82 110//81 138//82
f 110//81 91//81 138//82
f 109//18 141//104 90//18
f 109//18 105//17 141//104
f 105//17 87//17 141//104
f 220//15 144//15 289//15
f 220//15 114//14 144//15
f 114//14 95//14 144//15
f 102//8 147//8 84//8
f 102//8 194//8 147//8
f 194//8 80//8 147//8
f 118//8 150//8 81//8
f 118//8 131//8 150//8
f 167//8 94//8 150//8
f 222//1 153//1 291//1
f 222//1 103//1 153//1
f 103//1 85//1 153//1
f 156//1 96//1 179//1
f 133//1 129//1 156//1
f 129//1 92//1 156//1
f 163//8 279//8 281//8
f 163//8 161//8 279//8
f 161//8 210//8 279//8
f 161//8 208//8 210//8
f 161//8 159//8 208//8
f 159//8 242//8 208//8
f 159//8 241//8 242//8
f 159//8 165//8 241//8
f 165//8 264//8 241//8
f 176//1 175//1 12//1
f 176//1 174//1 175//1
f 174//1 252//1 175//1
f 174//1 173//1 252//1
f 174//1 172//1 173//1
f 172//1 227//1 173//1
f 172//1 171//1 227//1
f 172//1 170//1 171//1
f 170//1 285//1 171//1
f 6//1 129//1 181//1
f 170//1 6//1 181//1
f 181//1 133//1 170//1
f 179//1 96//1 170//1
f 180//1 115//1 170//1
f 177//1 8//1 283//1
f 283//1 285//1 177//1
f 170//1 133//1 179//1
f 96//1 180//1 170//1
f 177//1 285//1 115//1
f 6//1 176//1 13//1
f 116//1 6//1 15//1
f 15//1 258//1 97//1
f 79//1 116//1 15//1
f 103//1 205//1 248//1
f 248//1 6//1 122//1
f 85//1 103//1 248//1
f 126//1 253//1 37//6
f 37//6 8//1 108//1
f 108//1 89//1 37//6
f 188//8 230//8 130//8
f 130//8 93//8 188//8
f 112//8 46//8 188//8
f 230//8 49//8 165//8
f 169//8 230//8 163//8
f 163//8 281//8 113//8
f 265//8 267//8 166//8
f 113//8 168//8 163//8
f 265//8 166//8 281//8
f 169//8 163//8 131//8
f 94//8 167//8 163//8
f 131//8 163//8 167//8
f 166//8 113//8 281//8
f 230//8 169//8 118//8
f 57//8 195//8 102//8
f 121//8 230//8 57//8
f 57//8 102//8 84//8
f 76//12 55//8 104//8
f 123//8 267//8 76//12
f 104//8 86//8 76//12
f 127//18 268//43 231//42
f 231//42 45//16 109//18
f 90//18 127//18 231//42
f 160//47 50//47 51//47
f 243//46 271//45 250//48
f 158//1 244//107 211//108
f 209//49 250//48 225//52
f 164//47 52//47 282//47
f 280//53 225//52 284//55
f 162//47 53//109 54//110
f 106//59 266//56 284//55
f 284//55 178//57 106//59
f 266//56 106//59 240//60
f 114//14 221//13 36//79
f 36//79 7//105 132//14
f 132//14 95//14 36//79
f 204//86 17//106 128//81
f 128//81 91//81 204//86
f 110//81 56//80 204//86
f 47//96 276//83 107//85
f 107//85 88//85 47//96
f 125//85 16//97 47//96
f 94//8 168//8 151//8
f 96//1 155//1 180//1
f 115//1 108//1 177//1
f 113//8 166//8 123//8
f 131//8 167//8 150//8
f 133//1 156//1 179//1
