# Blender v2.76 (sub 0) OBJ File: 'CIRS tank.blend'
# www.blender.org
v -8.000000 8.000000 -0.200000
v -8.000000 4.015289 -0.200000
v -8.400000 4.015289 -0.200000
v -8.000000 3.993954 1.000000
v -8.000000 -3.988362 1.000000
v -1.866607 8.000000 -0.200000
v -1.866607 4.015289 -0.200000
v -6.008260 4.015289 -0.200000
v 1.855507 8.000000 -0.200000
v 1.855507 4.015289 -0.200000
v 5.997302 8.000000 -0.200000
v 5.997302 4.015289 -0.200000
v 8.000000 8.000000 -0.200000
v 8.000000 4.015289 -0.200000
v 8.000000 -4.027729 -0.200000
v 8.000000 -9.700000 -0.200000
v 5.997302 -9.700000 -0.200000
v -6.008260 8.000000 -0.200000
v -6.549786 3.993954 1.000000
v 1.796919 3.993954 5.000000
v 1.796919 -3.988362 5.000000
v -1.808018 -3.988362 5.000000
v 8.000000 3.993954 1.000000
v 8.000000 -3.988362 1.000000
v 6.538827 -3.988362 1.000000
v 5.607776 3.993954 1.376190
v 5.607776 -3.988362 1.376191
v 1.897651 -3.988362 4.959300
v 8.400000 8.000000 -0.200000
v 8.400000 4.015289 -0.200000
v 6.538827 3.993954 1.000000
v -6.549786 -3.988362 1.000000
v -1.908749 3.993954 4.959299
v -1.908749 -3.988362 4.959299
v -5.618741 -3.988362 1.376197
v 5.997302 -4.027729 -0.200000
v 1.855507 -4.027729 -0.200000
v 1.855507 -3.988806 4.941413
v -1.866607 -3.988806 4.941413
v -5.618741 3.993954 1.376197
v -6.008260 -4.027729 -0.200000
v -8.000000 -4.027729 -0.200000
v -1.866607 -4.027729 -0.200000
v -6.008260 -9.700000 -0.200000
v -8.000000 -9.700000 -0.200000
v -1.866607 -9.700000 -0.200000
v 1.855507 -9.700000 -0.200000
v 8.400000 -4.027729 -0.200000
v 8.400000 -9.700000 -0.200000
v -8.400000 -4.027729 -0.200000
v -8.400000 -9.700000 -0.200000
v -5.809025 3.993954 1.232233
v -6.008260 4.003581 0.458560
v -6.052782 3.993954 1.110186
v -6.312902 3.993954 1.028636
v 6.301943 3.993954 1.028636
v 5.997302 4.003581 0.458560
v 6.041821 3.993954 1.110184
v 5.798062 3.993954 1.232229
v -6.312902 -3.988362 1.028636
v -6.008260 -4.006118 0.458766
v -6.052782 -3.988362 1.110185
v -5.809025 -3.988362 1.232233
v 5.798062 -3.988362 1.232229
v 5.997302 -4.006118 0.458766
v 6.041821 -3.988362 1.110184
v 6.301943 -3.988362 1.028636
v -1.808018 3.993954 5.000000
v -1.842959 3.993954 4.994547
v -1.866607 3.994195 4.941412
v -1.879829 3.993954 4.979650
v 1.897651 3.993954 4.959300
v 1.868729 3.993954 4.979650
v 1.855507 3.994195 4.941412
v 1.831859 3.993954 4.994547
v -1.879829 -3.988362 4.979650
v -1.842959 -3.988362 4.994547
v 1.831859 -3.988362 4.994547
v 1.868730 -3.988362 4.979649
v -8.400000 8.000000 -0.200000
v -12.000000 4.015289 -0.200000
v -12.000000 -4.027729 -0.200000
v -12.000000 -9.700000 -0.200000
v -12.000000 8.000000 -0.200000
v 12.000000 8.000000 -0.200000
v 12.000000 4.015289 -0.200000
v 12.000000 -4.027729 -0.200000
v 12.000000 -9.700000 -0.200000
v 8.000000 -12.000000 -0.200000
v 5.997302 -12.000000 -0.200000
v -6.008260 -12.000000 -0.200000
v -8.000000 -12.000000 -0.200000
v -1.866607 -12.000000 -0.200000
v 1.855507 -12.000000 -0.200000
v 8.400000 -12.000000 -0.200000
v -8.400000 -12.000000 -0.200000
v -12.000000 -12.000000 -0.200000
v 12.000000 -12.000000 -0.200000
v 8.000000 -9.700000 -3.500000
v 8.400000 -9.700000 -3.500000
v -6.008260 -4.027729 -3.500000
v -1.866607 -4.027729 -3.500000
v 1.855507 -4.027729 -3.500000
v 8.400000 -4.027729 -3.500000
v 1.855507 -9.700000 -3.500000
v 5.997302 -4.027729 -3.500000
v -8.000000 -9.700000 -3.500000
v -8.400000 -9.700000 -3.500000
v -6.008260 -9.700000 -3.500000
v -1.866607 -9.700000 -3.500000
v -8.400000 -4.027729 -3.500000
v 8.000000 -4.027729 -3.500000
v 5.997302 -9.700000 -3.500000
v -8.000000 -4.027729 -3.500000
v -6.008260 -4.027729 -0.200000
v -8.000000 -4.027729 -0.200000
v -8.000000 -4.027729 -0.200000
v -8.000000 -4.027729 -0.200000
v 6.301943 3.993954 1.028636
v 6.041821 3.993954 1.110184
v 8.000000 -9.700000 -0.200000
v 8.400000 -9.700000 -0.200000
v 8.400000 -9.700000 -0.200000
v -8.400000 4.015289 -0.200000
v -8.400000 8.000000 -0.200000
v -1.908749 -3.988362 4.959299
v -5.618741 -3.988362 1.376197
v 8.400000 8.000000 -0.200000
v 1.831859 -3.988362 4.994547
v 1.868730 -3.988362 4.979649
v -5.618741 3.993954 1.376197
v -5.809025 3.993954 1.232233
v 8.400000 -4.027729 -0.200000
v 8.400000 -4.027729 -0.200000
v 8.400000 -4.027729 -0.200000
v 5.798062 3.993954 1.232229
v 1.796919 -3.988362 5.000000
v -1.808018 -3.988362 5.000000
v -8.000000 3.993954 1.000000
v -8.000000 3.993954 1.000000
v -8.000000 -3.988362 1.000000
v -8.000000 -3.988362 1.000000
v 8.400000 4.015289 -0.200000
v -8.000000 -9.700000 -0.200000
v -8.400000 -9.700000 -0.200000
v -8.400000 -9.700000 -0.200000
v -6.008260 -9.700000 -0.200000
v -1.866607 -9.700000 -0.200000
v -8.400000 -4.027729 -0.200000
v -8.400000 -4.027729 -0.200000
v -8.400000 -4.027729 -0.200000
v -6.052782 3.993954 1.110186
v -6.312902 3.993954 1.028636
v 1.855507 -9.700000 -0.200000
v 8.000000 -4.027729 -0.200000
v 8.000000 -4.027729 -0.200000
v 8.000000 -4.027729 -0.200000
v 5.997302 4.015289 -0.200000
v 8.000000 4.015289 -0.200000
v 8.000000 4.015289 -0.200000
v -8.000000 4.015289 -0.200000
v -8.000000 4.015289 -0.200000
v -6.008260 4.015289 -0.200000
v -8.400000 -4.027729 -3.500000
v -8.400000 -4.027729 -3.500000
v -1.866607 4.015289 -0.200000
v -1.842959 3.993954 4.994547
v -1.879829 3.993954 4.979650
v -1.808018 3.993954 5.000000
v -1.879829 -3.988362 4.979650
v -1.842959 -3.988362 4.994547
v -1.866607 -4.027729 -0.200000
v 8.000000 -3.988362 1.000000
v 8.000000 -3.988362 1.000000
v 6.538827 -3.988362 1.000000
v 5.798062 -3.988362 1.232229
v 6.041821 -3.988362 1.110184
v -6.312902 -3.988362 1.028636
v -6.052782 -3.988362 1.110185
v 1.855507 -4.027729 -0.200000
v 1.868729 3.993954 4.979650
v 1.831859 3.993954 4.994547
v -6.549786 3.993954 1.000000
v 5.997302 -9.700000 -0.200000
v -8.400000 -9.700000 -3.500000
v -8.400000 -9.700000 -3.500000
v 1.897651 3.993954 4.959300
v 8.000000 3.993954 1.000000
v 8.000000 3.993954 1.000000
v 5.607776 -3.988362 1.376191
v 1.897651 -3.988362 4.959300
v 5.997302 -4.027729 -0.200000
v 6.538827 3.993954 1.000000
v 1.855507 4.015289 -0.200000
v -5.809025 -3.988362 1.232233
v 8.400000 -4.027729 -3.500000
v 8.400000 -4.027729 -3.500000
v 6.301943 -3.988362 1.028636
v 8.000000 -9.700000 -3.500000
v 8.400000 -9.700000 -3.500000
v 8.400000 -9.700000 -3.500000
v -6.008260 -4.027729 -3.500000
v -1.866607 -4.027729 -3.500000
v 1.855507 -4.027729 -3.500000
v -8.000000 -9.700000 -3.500000
v -6.008260 -9.700000 -3.500000
v -1.866607 -9.700000 -3.500000
v 1.855507 -9.700000 -3.500000
v 8.000000 -4.027729 -3.500000
v -8.000000 -4.027729 -3.500000
v 5.997302 -4.027729 -3.500000
v 5.997302 -9.700000 -3.500000
v -1.908749 3.993954 4.959299
v -6.549786 -3.988362 1.000000
v 1.796919 3.993954 5.000000
v 5.607776 3.993954 1.376190
vn 0.000000 0.000000 -1.000000
vn -0.077300 0.000000 -0.997000
vn 0.077300 0.000000 -0.997000
vn -0.060100 0.000000 -0.998200
vn -0.650200 -0.000000 -0.759800
vn -0.637000 0.000000 -0.770900
vn 0.637000 0.000000 -0.770900
vn 0.650200 0.000000 -0.759800
vn 0.000000 -1.000000 0.000000
vn 1.000000 0.000000 0.000000
vn 0.004100 -0.999900 -0.010700
vn 0.010500 -0.999800 -0.015200
vn 0.008500 -0.999800 -0.017200
vn 0.006100 -0.999900 -0.014400
vn 0.003000 -0.999900 -0.015300
vn 0.000500 -0.999900 -0.017200
vn -0.000500 -0.999900 -0.017200
vn -0.003000 -0.999900 -0.015300
vn -0.008500 -0.999800 -0.017200
vn -0.006100 -0.999900 -0.014400
vn -0.010500 -0.999800 -0.015200
vn 0.005500 0.999600 -0.028200
vn 0.011200 0.999600 -0.026500
vn 0.015700 0.999400 -0.031800
vn 0.019400 0.999400 -0.027900
vn -0.019400 0.999400 -0.027900
vn -0.011200 0.999600 -0.026500
vn -0.015700 0.999400 -0.031800
vn -0.005500 0.999600 -0.028200
vn 0.000200 -1.000000 -0.004300
vn 0.001100 -1.000000 -0.005000
vn 0.002000 -1.000000 -0.004400
vn 0.002800 -1.000000 -0.005300
vn -0.003800 -1.000000 -0.004400
vn -0.002800 -1.000000 -0.005300
vn -0.002000 -1.000000 -0.004400
vn -0.001100 -1.000000 -0.005100
vn 0.005200 0.999900 -0.009800
vn 0.002100 1.000000 -0.009300
vn 0.003700 1.000000 -0.008200
vn -0.002100 1.000000 -0.009300
vn -0.005200 0.999900 -0.009800
vn -0.003700 1.000000 -0.008200
vn 0.002700 0.999900 -0.009800
vn -0.002700 0.999900 -0.009800
vn -1.000000 0.000000 0.000000
vn 0.000000 1.000000 0.000000
vn 0.001300 -0.999900 -0.016000
vn 0.000000 -0.999800 -0.017800
vn -0.001300 -0.999900 -0.016000
vn 0.060100 0.000000 -0.998200
vn -0.007600 0.999800 -0.019700
vn -0.002400 0.999600 -0.029500
vn 0.000300 1.000000 -0.007900
vn 0.001500 -1.000000 -0.005300
vn 0.001000 0.999500 -0.031800
vn 0.002400 0.999600 -0.029500
vn 0.000000 0.999500 -0.032800
vn 0.007600 0.999800 -0.019700
vn -0.001000 0.999500 -0.031800
vn -0.004100 -0.999900 -0.010700
vn 0.527700 0.000000 -0.849400
vn 0.374600 0.000000 -0.927200
vn 0.210500 0.000000 -0.977600
vn -0.210500 0.000000 -0.977600
vn -0.374600 0.000000 -0.927200
vn -0.527700 -0.000000 -0.849400
vn -0.001500 -1.000000 -0.005300
vn 0.003800 -1.000000 -0.004400
vn -0.000200 -1.000000 -0.004300
vn 0.007100 0.999900 -0.008200
vn -0.000300 1.000000 -0.007900
vn -0.007100 0.999900 -0.008200
vn 0.266100 0.000000 -0.963900
vn 0.478200 0.000000 -0.878300
vn -0.478200 0.000000 -0.878300
vn -0.266200 0.000000 -0.963900
s 1
f 1//1 161//1 124//1
f 6//1 166//1 163//1
f 9//1 194//1 166//1
f 11//1 158//1 194//1
f 13//1 159//1 158//1
f 18//1 163//1 161//1
f 215//2 137//2 138//3
f 188//1 173//1 175//4
f 216//5 190//5 191//6
f 128//1 143//1 159//1
f 213//7 126//7 127//8
f 148//9 207//9 105//9
f 123//10 201//10 196//10
f 143//1 134//1 155//1
f 121//9 199//9 200//9
f 131//11 132//12 53//13
f 132//12 152//14 53//13
f 152//14 153//15 53//13
f 153//15 183//16 53//13
f 193//17 119//18 57//19
f 119//18 120//20 57//19
f 120//20 136//21 57//19
f 178//22 179//23 61//24
f 179//23 195//25 61//24
f 176//26 177//27 65//28
f 177//27 198//29 65//28
f 169//30 167//31 70//32
f 167//31 168//33 70//32
f 187//34 181//35 74//36
f 181//35 182//37 74//36
f 170//38 171//39 39//40
f 129//41 130//42 38//43
f 125//1 1//1 124//1
f 18//1 6//1 163//1
f 6//1 9//1 166//1
f 9//1 11//1 194//1
f 11//1 13//1 158//1
f 147//9 206//9 207//9
f 1//1 18//1 161//1
f 13//1 128//1 159//1
f 172//44 39//40 38//43
f 38//43 180//45 172//44
f 149//46 164//46 185//46
f 184//9 212//9 199//9
f 145//9 186//9 205//9
f 48//47 197//47 209//47
f 124//1 161//1 150//1
f 159//1 143//1 155//1
f 151//1 82//1 81//1
f 51//1 83//1 82//1
f 3//1 81//1 84//1
f 29//1 85//1 86//1
f 30//1 86//1 87//1
f 135//1 87//1 88//1
f 44//1 91//1 92//1
f 17//1 90//1 94//1
f 51//1 96//1 97//1
f 46//1 93//1 91//1
f 16//1 89//1 90//1
f 88//1 98//1 95//1
f 47//1 94//1 93//1
f 45//1 92//1 96//1
f 49//1 95//1 89//1
f 112//1 99//1 113//1
f 202//1 109//1 107//1
f 203//1 110//1 109//1
f 204//1 208//1 110//1
f 211//1 113//1 208//1
f 104//1 100//1 99//1
f 210//1 107//1 108//1
f 211//1 112//1 113//1
f 210//1 202//1 107//1
f 202//1 203//1 109//1
f 203//1 204//1 110//1
f 204//1 211//1 208//1
f 112//1 104//1 99//1
f 165//1 210//1 108//1
f 154//9 105//9 212//9
f 144//9 205//9 206//9
f 162//10 139//10 141//10
f 115//47 101//47 114//47
f 8//48 183//16 2//49
f 14//49 193//17 12//50
f 19//51 214//51 142//1
f 27//52 192//53 180//45
f 22//54 38//43 39//40
f 7//55 131//11 8//48
f 32//56 41//57 42//58
f 35//59 172//44 41//57
f 25//60 15//58 192//53
f 156//47 209//47 106//47
f 37//47 103//47 102//47
f 160//46 157//46 174//46
f 116//47 114//47 111//47
f 161//1 117//1 150//1
f 136//21 26//61 57//19
f 32//56 178//22 61//24
f 195//25 35//59 61//24
f 27//52 176//26 65//28
f 198//29 25//60 65//28
f 127//8 63//62 52//62
f 63//62 62//63 54//63
f 62//63 60//64 55//64
f 60//64 214//51 19//51
f 175//4 67//65 56//65
f 67//65 66//66 58//66
f 66//66 64//67 59//67
f 64//67 190//5 216//5
f 12//50 26//61 10//68
f 168//33 33//69 70//32
f 182//37 20//70 74//36
f 34//71 170//38 39//40
f 171//39 22//54 39//40
f 21//72 129//41 38//43
f 130//42 28//73 38//43
f 138//3 77//74 69//74
f 77//74 76//75 71//75
f 76//75 126//7 213//7
f 191//6 79//76 73//76
f 73//76 79//76 78//77
f 78//77 137//2 215//2
f 74//36 20//70 70//32
f 118//10 162//10 141//10
f 140//49 2//49 183//16
f 8//48 53//13 183//16
f 68//3 215//2 138//3
f 31//4 188//1 175//4
f 72//6 216//5 191//6
f 57//19 12//50 193//17
f 14//49 189//49 193//17
f 4//1 19//51 142//1
f 40//8 213//7 127//8
f 180//45 38//43 28//73
f 28//73 27//52 180//45
f 65//28 192//53 27//52
f 22//54 21//72 38//43
f 53//13 8//48 131//11
f 7//55 70//32 33//69
f 33//69 131//11 7//55
f 42//58 5//58 32//56
f 32//56 61//24 41//57
f 41//57 61//24 35//59
f 35//59 34//71 172//44
f 39//40 172//44 34//71
f 192//53 65//28 25//60
f 25//60 24//58 15//58
f 43//47 102//47 101//47
f 23//46 160//46 174//46
f 36//47 106//47 103//47
f 40//8 127//8 52//62
f 52//62 63//62 54//63
f 54//63 62//63 55//64
f 55//64 60//64 19//51
f 31//4 175//4 56//65
f 56//65 67//65 58//66
f 58//66 66//66 59//67
f 59//67 64//67 216//5
f 74//36 10//68 187//34
f 12//50 57//19 26//61
f 26//61 187//34 10//68
f 68//3 138//3 69//74
f 69//74 77//74 71//75
f 71//75 76//75 213//7
f 72//6 191//6 73//76
f 75//77 73//76 78//77
f 75//77 78//77 215//2
f 70//32 7//55 10//68
f 10//68 74//36 70//32
f 20//70 169//30 70//32
f 154//9 148//9 105//9
f 133//10 123//10 196//10
f 122//9 121//9 200//9
f 148//9 147//9 207//9
f 146//46 149//46 185//46
f 121//9 184//9 199//9
f 144//9 145//9 205//9
f 156//47 48//47 209//47
f 3//1 151//1 81//1
f 151//1 51//1 82//1
f 80//1 3//1 84//1
f 30//1 29//1 86//1
f 135//1 30//1 87//1
f 49//1 135//1 88//1
f 45//1 44//1 92//1
f 47//1 17//1 94//1
f 83//1 51//1 97//1
f 44//1 46//1 91//1
f 17//1 16//1 90//1
f 49//1 88//1 95//1
f 46//1 47//1 93//1
f 51//1 45//1 96//1
f 16//1 49//1 89//1
f 184//9 154//9 212//9
f 147//9 144//9 206//9
f 116//47 115//47 114//47
f 36//47 156//47 106//47
f 43//47 37//47 102//47
f 50//47 116//47 111//47
f 115//47 43//47 101//47
f 37//47 36//47 103//47
