solid CATIA STL
  facet normal -2.811413e-008 -9.249491e-001  3.800908e-001
    outer loop
      vertex  2.499304e+001 -3.267421e+001  1.406462e+001
      vertex -2.462597e+001 -3.453600e+001  9.533982e+000
      vertex  2.480181e+001 -3.409256e+001  1.061308e+001
    endloop
  endfacet
  facet normal -1.242472e-008 -9.249493e-001  3.800902e-001
    outer loop
      vertex  2.480181e+001 -3.409256e+001  1.061308e+001
      vertex -2.462597e+001 -3.453600e+001  9.533982e+000
      vertex -2.370879e+001 -3.591275e+001  6.183640e+000
    endloop
  endfacet
  facet normal  4.979871e-008 -9.249496e-001  3.800896e-001
    outer loop
      vertex  2.480181e+001 -3.409256e+001  1.061308e+001
      vertex -2.370879e+001 -3.591275e+001  6.183640e+000
      vertex  2.405655e+001 -3.548423e+001  7.226440e+000
    endloop
  endfacet
  facet normal  2.300588e-008 -9.249492e-001  3.800906e-001
    outer loop
      vertex  2.405655e+001 -3.548423e+001  7.226440e+000
      vertex -2.370879e+001 -3.591275e+001  6.183640e+000
      vertex -2.226200e+001 -3.722218e+001  2.997158e+000
    endloop
  endfacet
  facet normal  2.797808e-008 -9.249493e-001  3.800906e-001
    outer loop
      vertex  2.405655e+001 -3.548423e+001  7.226440e+000
      vertex -2.226200e+001 -3.722218e+001  2.997158e+000
      vertex  2.277390e+001 -3.681815e+001  3.980370e+000
    endloop
  endfacet
  facet normal  4.585245e-008 -9.249495e-001  3.800899e-001
    outer loop
      vertex  2.277390e+001 -3.681815e+001  3.980370e+000
      vertex -2.226200e+001 -3.722218e+001  2.997158e+000
      vertex -2.031791e+001 -3.843502e+001  4.571628e-002
    endloop
  endfacet
  facet normal -6.468836e-008 -9.249492e-001  3.800910e-001
    outer loop
      vertex  2.277390e+001 -3.681815e+001  3.980370e+000
      vertex -2.031791e+001 -3.843502e+001  4.571628e-002
      vertex  2.098253e+001 -3.806450e+001  9.473761e-001
    endloop
  endfacet
  facet normal -4.936476e-008 -9.249494e-001  3.800904e-001
    outer loop
      vertex  2.098253e+001 -3.806450e+001  9.473761e-001
      vertex -2.031791e+001 -3.843502e+001  4.571628e-002
      vertex -1.791995e+001 -3.952418e+001 -2.604755e+000
    endloop
  endfacet
  facet normal  3.186908e-008 -9.249496e-001  3.800896e-001
    outer loop
      vertex  2.098253e+001 -3.806450e+001  9.473761e-001
      vertex -1.791995e+001 -3.952418e+001 -2.604755e+000
      vertex  1.872244e+001 -3.919545e+001 -1.804789e+000
    endloop
  endfacet
  facet normal  2.974803e-008 -9.249496e-001  3.800897e-001
    outer loop
      vertex  1.872244e+001 -3.919545e+001 -1.804789e+000
      vertex -1.791995e+001 -3.952418e+001 -2.604755e+000
      vertex -1.512169e+001 -4.046533e+001 -4.895049e+000
    endloop
  endfacet
  facet normal -1.482324e-008 -9.249495e-001  3.800901e-001
    outer loop
      vertex  1.872244e+001 -3.919545e+001 -1.804789e+000
      vertex -1.512169e+001 -4.046533e+001 -4.895049e+000
      vertex  1.604412e+001 -4.018573e+001 -4.214645e+000
    endloop
  endfacet
  facet normal -2.965420e-008 -9.249492e-001  3.800907e-001
    outer loop
      vertex  1.604412e+001 -4.018573e+001 -4.214645e+000
      vertex -1.512169e+001 -4.046533e+001 -4.895049e+000
      vertex -1.198564e+001 -4.123745e+001 -6.774004e+000
    endloop
  endfacet
  facet normal -2.525406e-008 -9.249493e-001  3.800906e-001
    outer loop
      vertex  1.604412e+001 -4.018573e+001 -4.214645e+000
      vertex -1.198564e+001 -4.123745e+001 -6.774004e+000
      vertex  1.300740e+001 -4.101323e+001 -6.228363e+000
    endloop
  endfacet
  facet normal -3.179744e-008 -9.249492e-001  3.800909e-001
    outer loop
      vertex  1.300740e+001 -4.101323e+001 -6.228363e+000
      vertex -1.198564e+001 -4.123745e+001 -6.774004e+000
      vertex -8.581846e+000 -4.182329e+001 -8.199647e+000
    endloop
  endfacet
  facet normal -5.723968e-008 -9.249490e-001  3.800911e-001
    outer loop
      vertex  1.300740e+001 -4.101323e+001 -6.228363e+000
      vertex -8.581846e+000 -4.182329e+001 -8.199647e+000
      vertex  9.680119e+000 -4.165946e+001 -7.800956e+000
    endloop
  endfacet
  facet normal -4.615228e-008 -9.249492e-001  3.800907e-001
    outer loop
      vertex  9.680119e+000 -4.165946e+001 -7.800956e+000
      vertex -8.581846e+000 -4.182329e+001 -8.199647e+000
      vertex -4.986350e+000 -4.220977e+001 -9.140131e+000
    endloop
  endfacet
  facet normal  1.132549e-007 -9.249499e-001  3.800892e-001
    outer loop
      vertex  9.680119e+000 -4.165946e+001 -7.800956e+000
      vertex -4.986350e+000 -4.220977e+001 -9.140131e+000
      vertex  6.136599e+000 -4.210998e+001 -8.897298e+000
    endloop
  endfacet
  facet normal  7.550135e-008 -9.249492e-001  3.800907e-001
    outer loop
      vertex  6.136599e+000 -4.210998e+001 -8.897298e+000
      vertex -4.986350e+000 -4.220977e+001 -9.140131e+000
      vertex -1.279467e+000 -4.238824e+001 -9.574449e+000
    endloop
  endfacet
  facet normal -1.616315e-008 -9.249488e-001  3.800915e-001
    outer loop
      vertex  6.136599e+000 -4.210998e+001 -8.897298e+000
      vertex -1.279467e+000 -4.238824e+001 -9.574449e+000
      vertex  2.455997e+000 -4.235473e+001 -9.492897e+000
    endloop
  endfacet
  facet normal  6.237183e-008 -9.249495e-001  3.800899e-001
    outer loop
      vertex -2.462597e+001 -3.453600e+001  9.533982e+000
      vertex  2.499304e+001 -3.267421e+001  1.406462e+001
      vertex -2.499304e+001 -3.312266e+001  1.297334e+001
    endloop
  endfacet
  facet normal  6.466738e-008 -9.249495e-001  3.800898e-001
    outer loop
      vertex -2.499304e+001 -3.312266e+001  1.297334e+001
      vertex  2.499304e+001 -3.267421e+001  1.406462e+001
      vertex  2.462597e+001 -3.126088e+001  1.750398e+001
    endloop
  endfacet
  facet normal  1.145156e-008 -9.249493e-001  3.800904e-001
    outer loop
      vertex -2.499304e+001 -3.312266e+001  1.297334e+001
      vertex  2.462597e+001 -3.126088e+001  1.750398e+001
      vertex -2.480181e+001 -3.170431e+001  1.642489e+001
    endloop
  endfacet
  facet normal  1.576573e-008 -9.249493e-001  3.800902e-001
    outer loop
      vertex -2.480181e+001 -3.170431e+001  1.642489e+001
      vertex  2.462597e+001 -3.126088e+001  1.750398e+001
      vertex  2.370879e+001 -2.988412e+001  2.085433e+001
    endloop
  endfacet
  facet normal -2.278195e-008 -9.249492e-001  3.800905e-001
    outer loop
      vertex -2.480181e+001 -3.170431e+001  1.642489e+001
      vertex  2.370879e+001 -2.988412e+001  2.085433e+001
      vertex -2.405655e+001 -3.031264e+001  1.981153e+001
    endloop
  endfacet
  facet normal -1.409887e-008 -9.249494e-001  3.800902e-001
    outer loop
      vertex -2.405655e+001 -3.031264e+001  1.981153e+001
      vertex  2.370879e+001 -2.988412e+001  2.085433e+001
      vertex  2.226200e+001 -2.857469e+001  2.404081e+001
    endloop
  endfacet
  facet normal  2.471784e-010 -9.249495e-001  3.800901e-001
    outer loop
      vertex -2.405655e+001 -3.031264e+001  1.981153e+001
      vertex  2.226200e+001 -2.857469e+001  2.404081e+001
      vertex -2.277390e+001 -2.897873e+001  2.305760e+001
    endloop
  endfacet
  facet normal -5.631390e-009 -9.249494e-001  3.800903e-001
    outer loop
      vertex -2.277390e+001 -2.897873e+001  2.305760e+001
      vertex  2.226200e+001 -2.857469e+001  2.404081e+001
      vertex  2.031791e+001 -2.736185e+001  2.699225e+001
    endloop
  endfacet
  facet normal -1.960348e-008 -9.249493e-001  3.800904e-001
    outer loop
      vertex -2.277390e+001 -2.897873e+001  2.305760e+001
      vertex  2.031791e+001 -2.736185e+001  2.699225e+001
      vertex -2.098253e+001 -2.773237e+001  2.609059e+001
    endloop
  endfacet
  facet normal -1.970928e-008 -9.249493e-001  3.800904e-001
    outer loop
      vertex -2.098253e+001 -2.773237e+001  2.609059e+001
      vertex  2.031791e+001 -2.736185e+001  2.699225e+001
      vertex  1.791995e+001 -2.627269e+001  2.964272e+001
    endloop
  endfacet
  facet normal  1.583268e-008 -9.249494e-001  3.800901e-001
    outer loop
      vertex -2.098253e+001 -2.773237e+001  2.609059e+001
      vertex  1.791995e+001 -2.627269e+001  2.964272e+001
      vertex -1.872244e+001 -2.660143e+001  2.884275e+001
    endloop
  endfacet
  facet normal  6.752324e-009 -9.249493e-001  3.800905e-001
    outer loop
      vertex -1.872244e+001 -2.660143e+001  2.884275e+001
      vertex  1.791995e+001 -2.627269e+001  2.964272e+001
      vertex  1.512169e+001 -2.533154e+001  3.193301e+001
    endloop
  endfacet
  facet normal -1.928318e-008 -9.249492e-001  3.800907e-001
    outer loop
      vertex -1.872244e+001 -2.660143e+001  2.884275e+001
      vertex  1.512169e+001 -2.533154e+001  3.193301e+001
      vertex -1.604412e+001 -2.561114e+001  3.125261e+001
    endloop
  endfacet
  facet normal  7.440833e-009 -9.249496e-001  3.800896e-001
    outer loop
      vertex -1.604412e+001 -2.561114e+001  3.125261e+001
      vertex  1.512169e+001 -2.533154e+001  3.193301e+001
      vertex  1.198564e+001 -2.455942e+001  3.381197e+001
    endloop
  endfacet
  facet normal -4.156593e-008 -9.249495e-001  3.800901e-001
    outer loop
      vertex -1.604412e+001 -2.561114e+001  3.125261e+001
      vertex  1.198564e+001 -2.455942e+001  3.381197e+001
      vertex -1.300740e+001 -2.478364e+001  3.326633e+001
    endloop
  endfacet
  facet normal -5.672914e-008 -9.249492e-001  3.800907e-001
    outer loop
      vertex -1.300740e+001 -2.478364e+001  3.326633e+001
      vertex  1.198564e+001 -2.455942e+001  3.381197e+001
      vertex  8.581846e+000 -2.397358e+001  3.523761e+001
    endloop
  endfacet
  facet normal  1.769613e-008 -9.249495e-001  3.800900e-001
    outer loop
      vertex -1.300740e+001 -2.478364e+001  3.326633e+001
      vertex  8.581846e+000 -2.397358e+001  3.523761e+001
      vertex -9.680119e+000 -2.413741e+001  3.483892e+001
    endloop
  endfacet
  facet normal  2.724316e-008 -9.249496e-001  3.800897e-001
    outer loop
      vertex -9.680119e+000 -2.413741e+001  3.483892e+001
      vertex  8.581846e+000 -2.397358e+001  3.523761e+001
      vertex  4.986350e+000 -2.358711e+001  3.617810e+001
    endloop
  endfacet
  facet normal -4.071568e-008 -9.249494e-001  3.800903e-001
    outer loop
      vertex -9.680119e+000 -2.413741e+001  3.483892e+001
      vertex  4.986350e+000 -2.358711e+001  3.617810e+001
      vertex -6.136599e+000 -2.368689e+001  3.593526e+001
    endloop
  endfacet
  facet normal -1.536671e-008 -9.249498e-001  3.800893e-001
    outer loop
      vertex -6.136599e+000 -2.368689e+001  3.593526e+001
      vertex  4.986350e+000 -2.358711e+001  3.617810e+001
      vertex  1.279467e+000 -2.340863e+001  3.661242e+001
    endloop
  endfacet
  facet normal  1.861181e-007 -9.249507e-001  3.800874e-001
    outer loop
      vertex -6.136599e+000 -2.368689e+001  3.593526e+001
      vertex  1.279467e+000 -2.340863e+001  3.661242e+001
      vertex -2.455997e+000 -2.344214e+001  3.653086e+001
    endloop
  endfacet
  facet normal  3.987591e-007  9.249474e-001 -3.800952e-001
    outer loop
      vertex  2.455997e+000  5.014021e+001 -4.750192e+001
      vertex -1.279467e+000  5.010670e+001 -4.758348e+001
      vertex  6.136599e+000  5.038496e+001 -4.690633e+001
    endloop
  endfacet
  facet normal -1.183304e-007  9.249494e-001 -3.800903e-001
    outer loop
      vertex  6.136599e+000  5.038496e+001 -4.690633e+001
      vertex -1.279467e+000  5.010670e+001 -4.758348e+001
      vertex -4.986350e+000  5.028518e+001 -4.714916e+001
    endloop
  endfacet
  facet normal -1.677330e-007  9.249502e-001 -3.800883e-001
    outer loop
      vertex  6.136599e+000  5.038496e+001 -4.690633e+001
      vertex -4.986350e+000  5.028518e+001 -4.714916e+001
      vertex  9.680119e+000  5.083548e+001 -4.580998e+001
    endloop
  endfacet
  facet normal -4.626285e-009  9.249495e-001 -3.800898e-001
    outer loop
      vertex  9.680119e+000  5.083548e+001 -4.580998e+001
      vertex -4.986350e+000  5.028518e+001 -4.714916e+001
      vertex -8.581846e+000  5.067165e+001 -4.620867e+001
    endloop
  endfacet
  facet normal -2.533136e-008  9.249498e-001 -3.800890e-001
    outer loop
      vertex  9.680119e+000  5.083548e+001 -4.580998e+001
      vertex -8.581846e+000  5.067165e+001 -4.620867e+001
      vertex  1.300740e+001  5.148171e+001 -4.423739e+001
    endloop
  endfacet
  facet normal  2.647701e-008  9.249497e-001 -3.800896e-001
    outer loop
      vertex  1.300740e+001  5.148171e+001 -4.423739e+001
      vertex -8.581846e+000  5.067165e+001 -4.620867e+001
      vertex -1.198564e+001  5.125749e+001 -4.478303e+001
    endloop
  endfacet
  facet normal  5.321641e-008  9.249492e-001 -3.800906e-001
    outer loop
      vertex  1.300740e+001  5.148171e+001 -4.423739e+001
      vertex -1.198564e+001  5.125749e+001 -4.478303e+001
      vertex  1.604412e+001  5.230921e+001 -4.222367e+001
    endloop
  endfacet
  facet normal  3.478061e-008  9.249493e-001 -3.800904e-001
    outer loop
      vertex  1.604412e+001  5.230921e+001 -4.222367e+001
      vertex -1.198564e+001  5.125749e+001 -4.478303e+001
      vertex -1.512169e+001  5.202961e+001 -4.290408e+001
    endloop
  endfacet
  facet normal  3.347427e-008  9.249493e-001 -3.800904e-001
    outer loop
      vertex  1.604412e+001  5.230921e+001 -4.222367e+001
      vertex -1.512169e+001  5.202961e+001 -4.290408e+001
      vertex  1.872244e+001  5.329949e+001 -3.981382e+001
    endloop
  endfacet
  facet normal  7.741685e-008  9.249492e-001 -3.800907e-001
    outer loop
      vertex  1.872244e+001  5.329949e+001 -3.981382e+001
      vertex -1.512169e+001  5.202961e+001 -4.290408e+001
      vertex -1.791995e+001  5.297076e+001 -4.061378e+001
    endloop
  endfacet
  facet normal  7.046636e-008  9.249493e-001 -3.800905e-001
    outer loop
      vertex  1.872244e+001  5.329949e+001 -3.981382e+001
      vertex -1.791995e+001  5.297076e+001 -4.061378e+001
      vertex  2.098253e+001  5.443044e+001 -3.706165e+001
    endloop
  endfacet
  facet normal -5.067992e-008  9.249498e-001 -3.800894e-001
    outer loop
      vertex  2.098253e+001  5.443044e+001 -3.706165e+001
      vertex -1.791995e+001  5.297076e+001 -4.061378e+001
      vertex -2.031791e+001  5.405992e+001 -3.796331e+001
    endloop
  endfacet
  facet normal -3.653556e-008  9.249496e-001 -3.800899e-001
    outer loop
      vertex  2.098253e+001  5.443044e+001 -3.706165e+001
      vertex -2.031791e+001  5.405992e+001 -3.796331e+001
      vertex  2.277390e+001  5.567679e+001 -3.402866e+001
    endloop
  endfacet
  facet normal  5.711399e-008  9.249492e-001 -3.800908e-001
    outer loop
      vertex  2.277390e+001  5.567679e+001 -3.402866e+001
      vertex -2.031791e+001  5.405992e+001 -3.796331e+001
      vertex -2.226200e+001  5.527276e+001 -3.501187e+001
    endloop
  endfacet
  facet normal  5.615367e-008  9.249492e-001 -3.800908e-001
    outer loop
      vertex  2.277390e+001  5.567679e+001 -3.402866e+001
      vertex -2.226200e+001  5.527276e+001 -3.501187e+001
      vertex  2.405655e+001  5.701070e+001 -3.078259e+001
    endloop
  endfacet
  facet normal -4.947056e-008  9.249496e-001 -3.800898e-001
    outer loop
      vertex  2.405655e+001  5.701070e+001 -3.078259e+001
      vertex -2.226200e+001  5.527276e+001 -3.501187e+001
      vertex -2.370879e+001  5.658218e+001 -3.182539e+001
    endloop
  endfacet
  facet normal -3.427801e-008  9.249494e-001 -3.800904e-001
    outer loop
      vertex  2.405655e+001  5.701070e+001 -3.078259e+001
      vertex -2.370879e+001  5.658218e+001 -3.182539e+001
      vertex  2.480181e+001  5.840238e+001 -2.739595e+001
    endloop
  endfacet
  facet normal -5.124619e-008  9.249493e-001 -3.800902e-001
    outer loop
      vertex  2.480181e+001  5.840238e+001 -2.739595e+001
      vertex -2.370879e+001  5.658218e+001 -3.182539e+001
      vertex -2.462597e+001  5.795894e+001 -2.847504e+001
    endloop
  endfacet
  facet normal -5.606419e-008  9.249495e-001 -3.800900e-001
    outer loop
      vertex  2.480181e+001  5.840238e+001 -2.739595e+001
      vertex -2.462597e+001  5.795894e+001 -2.847504e+001
      vertex  2.499304e+001  5.982072e+001 -2.394440e+001
    endloop
  endfacet
  facet normal  3.039663e-008  9.249491e-001 -3.800908e-001
    outer loop
      vertex  2.499304e+001  5.982072e+001 -2.394440e+001
      vertex -2.462597e+001  5.795894e+001 -2.847504e+001
      vertex -2.499304e+001  5.937228e+001 -2.503568e+001
    endloop
  endfacet
  facet normal  3.039663e-008  9.249491e-001 -3.800908e-001
    outer loop
      vertex  2.499304e+001  5.982072e+001 -2.394440e+001
      vertex -2.499304e+001  5.937228e+001 -2.503568e+001
      vertex  2.462597e+001  6.123407e+001 -2.050504e+001
    endloop
  endfacet
  facet normal -5.606419e-008  9.249495e-001 -3.800900e-001
    outer loop
      vertex  2.462597e+001  6.123407e+001 -2.050504e+001
      vertex -2.499304e+001  5.937228e+001 -2.503568e+001
      vertex -2.480181e+001  6.079063e+001 -2.158414e+001
    endloop
  endfacet
  facet normal -5.124619e-008  9.249493e-001 -3.800902e-001
    outer loop
      vertex  2.462597e+001  6.123407e+001 -2.050504e+001
      vertex -2.480181e+001  6.079063e+001 -2.158414e+001
      vertex  2.370879e+001  6.261082e+001 -1.715470e+001
    endloop
  endfacet
  facet normal -3.427801e-008  9.249494e-001 -3.800904e-001
    outer loop
      vertex  2.370879e+001  6.261082e+001 -1.715470e+001
      vertex -2.480181e+001  6.079063e+001 -2.158414e+001
      vertex -2.405655e+001  6.218230e+001 -1.819750e+001
    endloop
  endfacet
  facet normal -5.192968e-008  9.249497e-001 -3.800897e-001
    outer loop
      vertex  2.370879e+001  6.261082e+001 -1.715470e+001
      vertex -2.405655e+001  6.218230e+001 -1.819750e+001
      vertex  2.226200e+001  6.392025e+001 -1.396822e+001
    endloop
  endfacet
  facet normal  5.369455e-008  9.249492e-001 -3.800907e-001
    outer loop
      vertex  2.226200e+001  6.392025e+001 -1.396822e+001
      vertex -2.405655e+001  6.218230e+001 -1.819750e+001
      vertex -2.277390e+001  6.351622e+001 -1.495143e+001
    endloop
  endfacet
  facet normal  5.975725e-008  9.249491e-001 -3.800909e-001
    outer loop
      vertex  2.226200e+001  6.392025e+001 -1.396822e+001
      vertex -2.277390e+001  6.351622e+001 -1.495143e+001
      vertex  2.031791e+001  6.513309e+001 -1.101678e+001
    endloop
  endfacet
  facet normal -4.542692e-008  9.249496e-001 -3.800899e-001
    outer loop
      vertex  2.031791e+001  6.513309e+001 -1.101678e+001
      vertex -2.277390e+001  6.351622e+001 -1.495143e+001
      vertex -2.098253e+001  6.476257e+001 -1.191844e+001
    endloop
  endfacet
  facet normal -6.221452e-008  9.249498e-001 -3.800893e-001
    outer loop
      vertex  2.031791e+001  6.513309e+001 -1.101678e+001
      vertex -2.098253e+001  6.476257e+001 -1.191844e+001
      vertex  1.791995e+001  6.622224e+001 -8.366305e+000
    endloop
  endfacet
  facet normal  9.646822e-008  9.249492e-001 -3.800907e-001
    outer loop
      vertex  1.791995e+001  6.622224e+001 -8.366305e+000
      vertex -2.098253e+001  6.476257e+001 -1.191844e+001
      vertex -1.872244e+001  6.589352e+001 -9.166272e+000
    endloop
  endfacet
  facet normal  1.000532e-007  9.249491e-001 -3.800909e-001
    outer loop
      vertex  1.791995e+001  6.622224e+001 -8.366305e+000
      vertex -1.872244e+001  6.589352e+001 -9.166272e+000
      vertex  1.512169e+001  6.716340e+001 -6.076012e+000
    endloop
  endfacet
  facet normal -1.339659e-007  9.249500e-001 -3.800887e-001
    outer loop
      vertex  1.512169e+001  6.716340e+001 -6.076012e+000
      vertex -1.872244e+001  6.589352e+001 -9.166272e+000
      vertex -1.604412e+001  6.688380e+001 -6.756415e+000
    endloop
  endfacet
  facet normal -1.191349e-007  9.249499e-001 -3.800893e-001
    outer loop
      vertex  1.512169e+001  6.716340e+001 -6.076012e+000
      vertex -1.604412e+001  6.688380e+001 -6.756415e+000
      vertex  1.198564e+001  6.793552e+001 -4.197057e+000
    endloop
  endfacet
  facet normal  2.525406e-008  9.249493e-001 -3.800906e-001
    outer loop
      vertex  1.198564e+001  6.793552e+001 -4.197057e+000
      vertex -1.604412e+001  6.688380e+001 -6.756415e+000
      vertex -1.300740e+001  6.771130e+001 -4.742698e+000
    endloop
  endfacet
  facet normal  8.579094e-008  9.249483e-001 -3.800930e-001
    outer loop
      vertex  1.198564e+001  6.793552e+001 -4.197057e+000
      vertex -1.300740e+001  6.771130e+001 -4.742698e+000
      vertex  8.581846e+000  6.852136e+001 -2.771414e+000
    endloop
  endfacet
  facet normal  9.819006e-008  9.249482e-001 -3.800931e-001
    outer loop
      vertex  8.581846e+000  6.852136e+001 -2.771414e+000
      vertex -1.300740e+001  6.771130e+001 -4.742698e+000
      vertex -9.680119e+000  6.835753e+001 -3.170105e+000
    endloop
  endfacet
  facet normal  3.116762e-008  9.249493e-001 -3.800905e-001
    outer loop
      vertex  8.581846e+000  6.852136e+001 -2.771414e+000
      vertex -9.680119e+000  6.835753e+001 -3.170105e+000
      vertex  4.986350e+000  6.890784e+001 -1.830930e+000
    endloop
  endfacet
  facet normal -5.320952e-007  9.249514e-001 -3.800852e-001
    outer loop
      vertex  4.986350e+000  6.890784e+001 -1.830930e+000
      vertex -9.680119e+000  6.835753e+001 -3.170105e+000
      vertex -6.136599e+000  6.880804e+001 -2.073763e+000
    endloop
  endfacet
  facet normal -3.409750e-007  9.249484e-001 -3.800927e-001
    outer loop
      vertex  4.986350e+000  6.890784e+001 -1.830930e+000
      vertex -6.136599e+000  6.880804e+001 -2.073763e+000
      vertex  1.279467e+000  6.908631e+001 -1.396612e+000
    endloop
  endfacet
  facet normal -1.057854e-006  9.249512e-001 -3.800860e-001
    outer loop
      vertex  1.279467e+000  6.908631e+001 -1.396612e+000
      vertex -6.136599e+000  6.880804e+001 -2.073763e+000
      vertex -2.455997e+000  6.905280e+001 -1.478164e+000
    endloop
  endfacet
  facet normal  4.125031e-001  3.462456e-001  8.425884e-001
    outer loop
      vertex  1.198564e+001 -2.455942e+001  3.381197e+001
      vertex  1.198564e+001  6.793552e+001 -4.197057e+000
      vertex  8.581846e+000 -2.397358e+001  3.523761e+001
    endloop
  endfacet
  facet normal  4.125029e-001  3.462456e-001  8.425885e-001
    outer loop
      vertex  8.581846e+000 -2.397358e+001  3.523761e+001
      vertex  1.198564e+001  6.793552e+001 -4.197057e+000
      vertex  8.581846e+000  6.852136e+001 -2.771414e+000
    endloop
  endfacet
  facet normal  2.721245e-001  3.657464e-001  8.900437e-001
    outer loop
      vertex  8.581846e+000 -2.397358e+001  3.523761e+001
      vertex  8.581846e+000  6.852136e+001 -2.771414e+000
      vertex  4.986350e+000 -2.358711e+001  3.617810e+001
    endloop
  endfacet
  facet normal  2.721254e-001  3.657463e-001  8.900434e-001
    outer loop
      vertex  4.986350e+000 -2.358711e+001  3.617810e+001
      vertex  8.581846e+000  6.852136e+001 -2.771414e+000
      vertex  4.986350e+000  6.890784e+001 -1.830930e+000
    endloop
  endfacet
  facet normal  1.256680e-001  3.770770e-001  9.176167e-001
    outer loop
      vertex  4.986350e+000 -2.358711e+001  3.617810e+001
      vertex  4.986350e+000  6.890784e+001 -1.830930e+000
      vertex  1.279467e+000 -2.340863e+001  3.661242e+001
    endloop
  endfacet
  facet normal  1.256680e-001  3.770770e-001  9.176167e-001
    outer loop
      vertex  1.279467e+000 -2.340863e+001  3.661242e+001
      vertex  4.986350e+000  6.890784e+001 -1.830930e+000
      vertex  1.279467e+000  6.908631e+001 -1.396612e+000
    endloop
  endfacet
  facet normal -2.359672e-002  3.799844e-001  9.246918e-001
    outer loop
      vertex  1.279467e+000 -2.340863e+001  3.661242e+001
      vertex  1.279467e+000  6.908631e+001 -1.396612e+000
      vertex -2.455997e+000 -2.344214e+001  3.653086e+001
    endloop
  endfacet
  facet normal -2.359767e-002  3.799844e-001  9.246918e-001
    outer loop
      vertex -2.455997e+000 -2.344214e+001  3.653086e+001
      vertex  1.279467e+000  6.908631e+001 -1.396612e+000
      vertex -2.455997e+000  6.905280e+001 -1.478164e+000
    endloop
  endfacet
  facet normal -1.723334e-001  3.744036e-001  9.111109e-001
    outer loop
      vertex -2.455997e+000 -2.344214e+001  3.653086e+001
      vertex -2.455997e+000  6.905280e+001 -1.478164e+000
      vertex -6.136599e+000 -2.368689e+001  3.593526e+001
    endloop
  endfacet
  facet normal -1.723333e-001  3.744037e-001  9.111110e-001
    outer loop
      vertex -6.136599e+000 -2.368689e+001  3.593526e+001
      vertex -2.455997e+000  6.905280e+001 -1.478164e+000
      vertex -6.136599e+000  6.880804e+001 -2.073763e+000
    endloop
  endfacet
  facet normal -3.172221e-001  3.604591e-001  8.771769e-001
    outer loop
      vertex -6.136599e+000 -2.368689e+001  3.593526e+001
      vertex -6.136599e+000  6.880804e+001 -2.073763e+000
      vertex -9.680119e+000 -2.413741e+001  3.483892e+001
    endloop
  endfacet
  facet normal -3.172214e-001  3.604592e-001  8.771771e-001
    outer loop
      vertex -9.680119e+000 -2.413741e+001  3.483892e+001
      vertex -6.136599e+000  6.880804e+001 -2.073763e+000
      vertex -9.680119e+000  6.835753e+001 -3.170105e+000
    endloop
  endfacet
  facet normal -4.550231e-001  3.384626e-001  8.236486e-001
    outer loop
      vertex -9.680119e+000 -2.413741e+001  3.483892e+001
      vertex -9.680119e+000  6.835753e+001 -3.170105e+000
      vertex -1.300740e+001 -2.478364e+001  3.326633e+001
    endloop
  endfacet
  facet normal -4.550237e-001  3.384625e-001  8.236483e-001
    outer loop
      vertex -1.300740e+001 -2.478364e+001  3.326633e+001
      vertex -9.680119e+000  6.835753e+001 -3.170105e+000
      vertex -1.300740e+001  6.771130e+001 -4.742698e+000
    endloop
  endfacet
  facet normal -5.826598e-001  3.089055e-001  7.517214e-001
    outer loop
      vertex -1.300740e+001 -2.478364e+001  3.326633e+001
      vertex -1.300740e+001  6.771130e+001 -4.742698e+000
      vertex -1.604412e+001 -2.561114e+001  3.125261e+001
    endloop
  endfacet
  facet normal -5.826598e-001  3.089055e-001  7.517214e-001
    outer loop
      vertex -1.604412e+001 -2.561114e+001  3.125261e+001
      vertex -1.300740e+001  6.771130e+001 -4.742698e+000
      vertex -1.604412e+001  6.688380e+001 -6.756415e+000
    endloop
  endfacet
  facet normal -6.972807e-001  2.724480e-001  6.630021e-001
    outer loop
      vertex -1.604412e+001 -2.561114e+001  3.125261e+001
      vertex -1.604412e+001  6.688380e+001 -6.756415e+000
      vertex -1.872244e+001 -2.660143e+001  2.884275e+001
    endloop
  endfacet
  facet normal -6.972803e-001  2.724482e-001  6.630025e-001
    outer loop
      vertex -1.872244e+001 -2.660143e+001  2.884275e+001
      vertex -1.604412e+001  6.688380e+001 -6.756415e+000
      vertex -1.872244e+001  6.589352e+001 -9.166272e+000
    endloop
  endfacet
  facet normal -7.963260e-001  2.299043e-001  5.594720e-001
    outer loop
      vertex -1.872244e+001 -2.660143e+001  2.884275e+001
      vertex -1.872244e+001  6.589352e+001 -9.166272e+000
      vertex -2.098253e+001 -2.773237e+001  2.609059e+001
    endloop
  endfacet
  facet normal -7.963260e-001  2.299043e-001  5.594720e-001
    outer loop
      vertex -2.098253e+001 -2.773237e+001  2.609059e+001
      vertex -1.872244e+001  6.589352e+001 -9.166272e+000
      vertex -2.098253e+001  6.476257e+001 -1.191844e+001
    endloop
  endfacet
  facet normal -8.775824e-001  1.822251e-001  4.434447e-001
    outer loop
      vertex -2.098253e+001 -2.773237e+001  2.609059e+001
      vertex -2.098253e+001  6.476257e+001 -1.191844e+001
      vertex -2.277390e+001 -2.897873e+001  2.305760e+001
    endloop
  endfacet
  facet normal -8.775824e-001  1.822251e-001  4.434447e-001
    outer loop
      vertex -2.277390e+001 -2.897873e+001  2.305760e+001
      vertex -2.098253e+001  6.476257e+001 -1.191844e+001
      vertex -2.277390e+001  6.351622e+001 -1.495143e+001
    endloop
  endfacet
  facet normal -9.392353e-001  1.304751e-001  3.175110e-001
    outer loop
      vertex -2.277390e+001 -2.897873e+001  2.305760e+001
      vertex -2.277390e+001  6.351622e+001 -1.495143e+001
      vertex -2.405655e+001 -3.031264e+001  1.981153e+001
    endloop
  endfacet
  facet normal -9.392353e-001  1.304751e-001  3.175110e-001
    outer loop
      vertex -2.405655e+001 -3.031264e+001  1.981153e+001
      vertex -2.277390e+001  6.351622e+001 -1.495143e+001
      vertex -2.405655e+001  6.218230e+001 -1.819750e+001
    endloop
  endfacet
  facet normal -9.799073e-001  7.581051e-002  1.844848e-001
    outer loop
      vertex -2.405655e+001 -3.031264e+001  1.981153e+001
      vertex -2.405655e+001  6.218230e+001 -1.819750e+001
      vertex -2.480181e+001 -3.170431e+001  1.642489e+001
    endloop
  endfacet
  facet normal -9.799073e-001  7.581051e-002  1.844848e-001
    outer loop
      vertex -2.480181e+001 -3.170431e+001  1.642489e+001
      vertex -2.405655e+001  6.218230e+001 -1.819750e+001
      vertex -2.480181e+001  6.079063e+001 -2.158414e+001
    endloop
  endfacet
  facet normal -9.986895e-001  1.945249e-002  4.733762e-002
    outer loop
      vertex -2.480181e+001 -3.170431e+001  1.642489e+001
      vertex -2.480181e+001  6.079063e+001 -2.158414e+001
      vertex -2.499304e+001 -3.312266e+001  1.297334e+001
    endloop
  endfacet
  facet normal -9.986895e-001  1.945249e-002  4.733762e-002
    outer loop
      vertex -2.499304e+001 -3.312266e+001  1.297334e+001
      vertex -2.480181e+001  6.079063e+001 -2.158414e+001
      vertex -2.499304e+001  5.937228e+001 -2.503568e+001
    endloop
  endfacet
  facet normal -9.951627e-001 -3.733997e-002 -9.086680e-002
    outer loop
      vertex -2.499304e+001 -3.312266e+001  1.297334e+001
      vertex -2.499304e+001  5.937228e+001 -2.503568e+001
      vertex -2.462597e+001 -3.453600e+001  9.533982e+000
    endloop
  endfacet
  facet normal -9.951628e-001 -3.733995e-002 -9.086674e-002
    outer loop
      vertex -2.462597e+001 -3.453600e+001  9.533982e+000
      vertex -2.499304e+001  5.937228e+001 -2.503568e+001
      vertex -2.462597e+001  5.795894e+001 -2.847504e+001
    endloop
  endfacet
  facet normal -9.694058e-001 -9.329842e-002 -2.270416e-001
    outer loop
      vertex -2.462597e+001 -3.453600e+001  9.533982e+000
      vertex -2.462597e+001  5.795894e+001 -2.847504e+001
      vertex -2.370879e+001 -3.591275e+001  6.183640e+000
    endloop
  endfacet
  facet normal -9.694058e-001 -9.329842e-002 -2.270416e-001
    outer loop
      vertex -2.370879e+001 -3.591275e+001  6.183640e+000
      vertex -2.462597e+001  5.795894e+001 -2.847504e+001
      vertex -2.370879e+001  5.658218e+001 -3.182539e+001
    endloop
  endfacet
  facet normal -9.219938e-001 -1.471727e-001 -3.581446e-001
    outer loop
      vertex -2.370879e+001 -3.591275e+001  6.183640e+000
      vertex -2.370879e+001  5.658218e+001 -3.182539e+001
      vertex -2.226200e+001 -3.722218e+001  2.997158e+000
    endloop
  endfacet
  facet normal -9.219937e-001 -1.471728e-001 -3.581448e-001
    outer loop
      vertex -2.226200e+001 -3.722218e+001  2.997158e+000
      vertex -2.370879e+001  5.658218e+001 -3.182539e+001
      vertex -2.226200e+001  5.527276e+001 -3.501187e+001
    endloop
  endfacet
  facet normal -8.539860e-001 -1.977594e-001 -4.812473e-001
    outer loop
      vertex -2.226200e+001 -3.722218e+001  2.997158e+000
      vertex -2.226200e+001  5.527276e+001 -3.501187e+001
      vertex -2.031791e+001 -3.843502e+001  4.571628e-002
    endloop
  endfacet
  facet normal -8.539862e-001 -1.977593e-001 -4.812470e-001
    outer loop
      vertex -2.031791e+001 -3.843502e+001  4.571628e-002
      vertex -2.226200e+001  5.527276e+001 -3.501187e+001
      vertex -2.031791e+001  5.405992e+001 -3.796331e+001
    endloop
  endfacet
  facet normal -7.669017e-001 -2.439285e-001 -5.935998e-001
    outer loop
      vertex -2.031791e+001 -3.843502e+001  4.571628e-002
      vertex -2.031791e+001  5.405992e+001 -3.796331e+001
      vertex -1.791995e+001 -3.952418e+001 -2.604755e+000
    endloop
  endfacet
  facet normal -7.669014e-001 -2.439286e-001 -5.936001e-001
    outer loop
      vertex -1.791995e+001 -3.952418e+001 -2.604755e+000
      vertex -2.031791e+001  5.405992e+001 -3.796331e+001
      vertex -1.791995e+001  5.297076e+001 -4.061378e+001
    endloop
  endfacet
  facet normal -6.626860e-001 -2.846486e-001 -6.926922e-001
    outer loop
      vertex -1.791995e+001 -3.952418e+001 -2.604755e+000
      vertex -1.791995e+001  5.297076e+001 -4.061378e+001
      vertex -1.512169e+001 -4.046533e+001 -4.895049e+000
    endloop
  endfacet
  facet normal -6.626865e-001 -2.846485e-001 -6.926919e-001
    outer loop
      vertex -1.512169e+001 -4.046533e+001 -4.895049e+000
      vertex -1.791995e+001  5.297076e+001 -4.061378e+001
      vertex -1.512169e+001  5.202961e+001 -4.290408e+001
    endloop
  endfacet
  facet normal -5.436667e-001 -3.190102e-001 -7.763112e-001
    outer loop
      vertex -1.512169e+001 -4.046533e+001 -4.895049e+000
      vertex -1.512169e+001  5.202961e+001 -4.290408e+001
      vertex -1.198564e+001 -4.123745e+001 -6.774004e+000
    endloop
  endfacet
  facet normal -5.436674e-001 -3.190101e-001 -7.763107e-001
    outer loop
      vertex -1.198564e+001 -4.123745e+001 -6.774004e+000
      vertex -1.512169e+001  5.202961e+001 -4.290408e+001
      vertex -1.198564e+001  5.125749e+001 -4.478303e+001
    endloop
  endfacet
  facet normal -4.125037e-001 -3.462455e-001 -8.425881e-001
    outer loop
      vertex -1.198564e+001 -4.123745e+001 -6.774004e+000
      vertex -1.198564e+001  5.125749e+001 -4.478303e+001
      vertex -8.581846e+000 -4.182329e+001 -8.199647e+000
    endloop
  endfacet
  facet normal -4.125023e-001 -3.462457e-001 -8.425888e-001
    outer loop
      vertex -8.581846e+000 -4.182329e+001 -8.199647e+000
      vertex -1.198564e+001  5.125749e+001 -4.478303e+001
      vertex -8.581846e+000  5.067165e+001 -4.620867e+001
    endloop
  endfacet
  facet normal -2.721246e-001 -3.657464e-001 -8.900437e-001
    outer loop
      vertex -8.581846e+000 -4.182329e+001 -8.199647e+000
      vertex -8.581846e+000  5.067165e+001 -4.620867e+001
      vertex -4.986350e+000 -4.220977e+001 -9.140131e+000
    endloop
  endfacet
  facet normal -2.721246e-001 -3.657464e-001 -8.900437e-001
    outer loop
      vertex -4.986350e+000 -4.220977e+001 -9.140131e+000
      vertex -8.581846e+000  5.067165e+001 -4.620867e+001
      vertex -4.986350e+000  5.028518e+001 -4.714916e+001
    endloop
  endfacet
  facet normal -1.256671e-001 -3.770771e-001 -9.176168e-001
    outer loop
      vertex -4.986350e+000 -4.220977e+001 -9.140131e+000
      vertex -4.986350e+000  5.028518e+001 -4.714916e+001
      vertex -1.279467e+000 -4.238824e+001 -9.574449e+000
    endloop
  endfacet
  facet normal -1.256680e-001 -3.770770e-001 -9.176167e-001
    outer loop
      vertex -1.279467e+000 -4.238824e+001 -9.574449e+000
      vertex -4.986350e+000  5.028518e+001 -4.714916e+001
      vertex -1.279467e+000  5.010670e+001 -4.758348e+001
    endloop
  endfacet
  facet normal  2.359672e-002 -3.799844e-001 -9.246918e-001
    outer loop
      vertex -1.279467e+000 -4.238824e+001 -9.574449e+000
      vertex -1.279467e+000  5.010670e+001 -4.758348e+001
      vertex  2.455997e+000 -4.235473e+001 -9.492897e+000
    endloop
  endfacet
  facet normal  2.359767e-002 -3.799844e-001 -9.246918e-001
    outer loop
      vertex  2.455997e+000 -4.235473e+001 -9.492897e+000
      vertex -1.279467e+000  5.010670e+001 -4.758348e+001
      vertex  2.455997e+000  5.014021e+001 -4.750192e+001
    endloop
  endfacet
  facet normal  1.723341e-001 -3.744035e-001 -9.111108e-001
    outer loop
      vertex  2.455997e+000 -4.235473e+001 -9.492897e+000
      vertex  2.455997e+000  5.014021e+001 -4.750192e+001
      vertex  6.136599e+000 -4.210998e+001 -8.897298e+000
    endloop
  endfacet
  facet normal  1.723332e-001 -3.744036e-001 -9.111109e-001
    outer loop
      vertex  6.136599e+000 -4.210998e+001 -8.897298e+000
      vertex  2.455997e+000  5.014021e+001 -4.750192e+001
      vertex  6.136599e+000  5.038496e+001 -4.690633e+001
    endloop
  endfacet
  facet normal  3.172213e-001 -3.604592e-001 -8.771771e-001
    outer loop
      vertex  6.136599e+000 -4.210998e+001 -8.897298e+000
      vertex  6.136599e+000  5.038496e+001 -4.690633e+001
      vertex  9.680119e+000 -4.165946e+001 -7.800956e+000
    endloop
  endfacet
  facet normal  3.172221e-001 -3.604591e-001 -8.771769e-001
    outer loop
      vertex  9.680119e+000 -4.165946e+001 -7.800956e+000
      vertex  6.136599e+000  5.038496e+001 -4.690633e+001
      vertex  9.680119e+000  5.083548e+001 -4.580998e+001
    endloop
  endfacet
  facet normal  4.550231e-001 -3.384626e-001 -8.236486e-001
    outer loop
      vertex  9.680119e+000 -4.165946e+001 -7.800956e+000
      vertex  9.680119e+000  5.083548e+001 -4.580998e+001
      vertex  1.300740e+001 -4.101323e+001 -6.228363e+000
    endloop
  endfacet
  facet normal  4.550225e-001 -3.384628e-001 -8.236489e-001
    outer loop
      vertex  1.300740e+001 -4.101323e+001 -6.228363e+000
      vertex  9.680119e+000  5.083548e+001 -4.580998e+001
      vertex  1.300740e+001  5.148171e+001 -4.423739e+001
    endloop
  endfacet
  facet normal  5.826598e-001 -3.089055e-001 -7.517214e-001
    outer loop
      vertex  1.300740e+001 -4.101323e+001 -6.228363e+000
      vertex  1.300740e+001  5.148171e+001 -4.423739e+001
      vertex  1.604412e+001 -4.018573e+001 -4.214645e+000
    endloop
  endfacet
  facet normal  5.826598e-001 -3.089055e-001 -7.517214e-001
    outer loop
      vertex  1.604412e+001 -4.018573e+001 -4.214645e+000
      vertex  1.300740e+001  5.148171e+001 -4.423739e+001
      vertex  1.604412e+001  5.230921e+001 -4.222367e+001
    endloop
  endfacet
  facet normal  6.972808e-001 -2.724480e-001 -6.630020e-001
    outer loop
      vertex  1.604412e+001 -4.018573e+001 -4.214645e+000
      vertex  1.604412e+001  5.230921e+001 -4.222367e+001
      vertex  1.872244e+001 -3.919545e+001 -1.804789e+000
    endloop
  endfacet
  facet normal  6.972808e-001 -2.724480e-001 -6.630020e-001
    outer loop
      vertex  1.872244e+001 -3.919545e+001 -1.804789e+000
      vertex  1.604412e+001  5.230921e+001 -4.222367e+001
      vertex  1.872244e+001  5.329949e+001 -3.981382e+001
    endloop
  endfacet
  facet normal  7.963262e-001 -2.299043e-001 -5.594718e-001
    outer loop
      vertex  1.872244e+001 -3.919545e+001 -1.804789e+000
      vertex  1.872244e+001  5.329949e+001 -3.981382e+001
      vertex  2.098253e+001 -3.806450e+001  9.473761e-001
    endloop
  endfacet
  facet normal  7.963264e-001 -2.299041e-001 -5.594715e-001
    outer loop
      vertex  2.098253e+001 -3.806450e+001  9.473761e-001
      vertex  1.872244e+001  5.329949e+001 -3.981382e+001
      vertex  2.098253e+001  5.443044e+001 -3.706165e+001
    endloop
  endfacet
  facet normal  8.775826e-001 -1.822250e-001 -4.434443e-001
    outer loop
      vertex  2.098253e+001 -3.806450e+001  9.473761e-001
      vertex  2.098253e+001  5.443044e+001 -3.706165e+001
      vertex  2.277390e+001 -3.681815e+001  3.980370e+000
    endloop
  endfacet
  facet normal  8.775824e-001 -1.822251e-001 -4.434447e-001
    outer loop
      vertex  2.277390e+001 -3.681815e+001  3.980370e+000
      vertex  2.098253e+001  5.443044e+001 -3.706165e+001
      vertex  2.277390e+001  5.567679e+001 -3.402866e+001
    endloop
  endfacet
  facet normal  9.392353e-001 -1.304751e-001 -3.175110e-001
    outer loop
      vertex  2.277390e+001 -3.681815e+001  3.980370e+000
      vertex  2.277390e+001  5.567679e+001 -3.402866e+001
      vertex  2.405655e+001 -3.548423e+001  7.226440e+000
    endloop
  endfacet
  facet normal  9.392353e-001 -1.304751e-001 -3.175110e-001
    outer loop
      vertex  2.405655e+001 -3.548423e+001  7.226440e+000
      vertex  2.277390e+001  5.567679e+001 -3.402866e+001
      vertex  2.405655e+001  5.701070e+001 -3.078259e+001
    endloop
  endfacet
  facet normal  9.799072e-001 -7.581057e-002 -1.844849e-001
    outer loop
      vertex  2.405655e+001 -3.548423e+001  7.226440e+000
      vertex  2.405655e+001  5.701070e+001 -3.078259e+001
      vertex  2.480181e+001 -3.409256e+001  1.061308e+001
    endloop
  endfacet
  facet normal  9.799073e-001 -7.581051e-002 -1.844848e-001
    outer loop
      vertex  2.480181e+001 -3.409256e+001  1.061308e+001
      vertex  2.405655e+001  5.701070e+001 -3.078259e+001
      vertex  2.480181e+001  5.840238e+001 -2.739595e+001
    endloop
  endfacet
  facet normal  9.986895e-001 -1.945246e-002 -4.733754e-002
    outer loop
      vertex  2.480181e+001 -3.409256e+001  1.061308e+001
      vertex  2.480181e+001  5.840238e+001 -2.739595e+001
      vertex  2.499304e+001 -3.267421e+001  1.406462e+001
    endloop
  endfacet
  facet normal  9.986896e-001 -1.945247e-002 -4.733758e-002
    outer loop
      vertex  2.499304e+001 -3.267421e+001  1.406462e+001
      vertex  2.480181e+001  5.840238e+001 -2.739595e+001
      vertex  2.499304e+001  5.982072e+001 -2.394440e+001
    endloop
  endfacet
  facet normal  9.951628e-001  3.733997e-002  9.086680e-002
    outer loop
      vertex  2.499304e+001 -3.267421e+001  1.406462e+001
      vertex  2.499304e+001  5.982072e+001 -2.394440e+001
      vertex  2.462597e+001 -3.126088e+001  1.750398e+001
    endloop
  endfacet
  facet normal  9.951628e-001  3.733994e-002  9.086671e-002
    outer loop
      vertex  2.462597e+001 -3.126088e+001  1.750398e+001
      vertex  2.499304e+001  5.982072e+001 -2.394440e+001
      vertex  2.462597e+001  6.123407e+001 -2.050504e+001
    endloop
  endfacet
  facet normal  9.694058e-001  9.329842e-002  2.270416e-001
    outer loop
      vertex  2.462597e+001 -3.126088e+001  1.750398e+001
      vertex  2.462597e+001  6.123407e+001 -2.050504e+001
      vertex  2.370879e+001 -2.988412e+001  2.085433e+001
    endloop
  endfacet
  facet normal  9.694058e-001  9.329842e-002  2.270416e-001
    outer loop
      vertex  2.370879e+001 -2.988412e+001  2.085433e+001
      vertex  2.462597e+001  6.123407e+001 -2.050504e+001
      vertex  2.370879e+001  6.261082e+001 -1.715470e+001
    endloop
  endfacet
  facet normal  9.219940e-001  1.471727e-001  3.581446e-001
    outer loop
      vertex  2.370879e+001 -2.988412e+001  2.085433e+001
      vertex  2.370879e+001  6.261082e+001 -1.715470e+001
      vertex  2.226200e+001 -2.857469e+001  2.404081e+001
    endloop
  endfacet
  facet normal  9.219940e-001  1.471727e-001  3.581446e-001
    outer loop
      vertex  2.226200e+001 -2.857469e+001  2.404081e+001
      vertex  2.370879e+001  6.261082e+001 -1.715470e+001
      vertex  2.226200e+001  6.392025e+001 -1.396822e+001
    endloop
  endfacet
  facet normal  8.539860e-001  1.977594e-001  4.812473e-001
    outer loop
      vertex  2.226200e+001 -2.857469e+001  2.404081e+001
      vertex  2.226200e+001  6.392025e+001 -1.396822e+001
      vertex  2.031791e+001 -2.736185e+001  2.699225e+001
    endloop
  endfacet
  facet normal  8.539860e-001  1.977594e-001  4.812473e-001
    outer loop
      vertex  2.031791e+001 -2.736185e+001  2.699225e+001
      vertex  2.226200e+001  6.392025e+001 -1.396822e+001
      vertex  2.031791e+001  6.513309e+001 -1.101678e+001
    endloop
  endfacet
  facet normal  7.669021e-001  2.439283e-001  5.935994e-001
    outer loop
      vertex  2.031791e+001 -2.736185e+001  2.699225e+001
      vertex  2.031791e+001  6.513309e+001 -1.101678e+001
      vertex  1.791995e+001 -2.627269e+001  2.964272e+001
    endloop
  endfacet
  facet normal  7.669017e-001  2.439284e-001  5.935997e-001
    outer loop
      vertex  1.791995e+001 -2.627269e+001  2.964272e+001
      vertex  2.031791e+001  6.513309e+001 -1.101678e+001
      vertex  1.791995e+001  6.622224e+001 -8.366305e+000
    endloop
  endfacet
  facet normal  6.626856e-001  2.846487e-001  6.926926e-001
    outer loop
      vertex  1.791995e+001 -2.627269e+001  2.964272e+001
      vertex  1.791995e+001  6.622224e+001 -8.366305e+000
      vertex  1.512169e+001 -2.533154e+001  3.193301e+001
    endloop
  endfacet
  facet normal  6.626860e-001  2.846486e-001  6.926922e-001
    outer loop
      vertex  1.512169e+001 -2.533154e+001  3.193301e+001
      vertex  1.791995e+001  6.622224e+001 -8.366305e+000
      vertex  1.512169e+001  6.716340e+001 -6.076012e+000
    endloop
  endfacet
  facet normal  5.436668e-001  3.190102e-001  7.763111e-001
    outer loop
      vertex  1.512169e+001 -2.533154e+001  3.193301e+001
      vertex  1.512169e+001  6.716340e+001 -6.076012e+000
      vertex  1.198564e+001 -2.455942e+001  3.381197e+001
    endloop
  endfacet
  facet normal  5.436663e-001  3.190103e-001  7.763114e-001
    outer loop
      vertex  1.198564e+001 -2.455942e+001  3.381197e+001
      vertex  1.512169e+001  6.716340e+001 -6.076012e+000
      vertex  1.198564e+001  6.793552e+001 -4.197057e+000
    endloop
  endfacet
endsolid CATIA STL
