# Blender v2.76 (sub 0) OBJ File: 'arm.blend'
# www.blender.org
v -0.037000 -0.037000 -0.006000
v -0.037000 0.037000 -0.006000
v -0.019463 -0.005094 -0.006000
v -0.014204 -0.014593 -0.006000
v -0.003144 -0.019980 -0.006000
v 0.037000 -0.037000 -0.006000
v 0.037000 0.037000 -0.006000
v 0.003144 0.019980 -0.006000
v -0.005173 0.019363 -0.006000
v -0.013590 0.015167 -0.006000
v -0.019719 0.004500 -0.006000
v 0.019276 -0.005760 -0.006000
v 0.019880 0.003729 -0.006000
v 0.014204 0.014593 -0.006000
v 0.005173 -0.019363 -0.006000
v 0.013590 -0.015167 -0.006000
v 0.019197 0.007287 -0.032000
v 0.008994 0.018271 -0.032000
v -0.003144 0.019980 -0.032000
v -0.015302 0.013692 -0.032000
v -0.020360 -0.000420 -0.032000
v -0.017007 -0.010747 -0.032000
v -0.008994 -0.018271 -0.032000
v 0.003144 -0.019980 -0.032000
v 0.011883 -0.016234 -0.032000
v 0.018842 -0.007726 -0.032000
v -0.037000 0.037000 -0.000000
v -0.037000 -0.037000 0.000000
v 0.037000 0.037000 -0.000000
v 0.037000 -0.037000 0.000000
v 0.000000 0.000000 0.000000
v 0.037000 0.000000 0.000000
v 0.000000 0.037000 -0.000000
v 0.000000 -0.037000 0.000000
v -0.037000 0.000000 0.000000
v 0.028138 -0.021380 -0.006000
v 0.037000 -0.000000 -0.006000
v -0.037000 -0.000000 -0.006000
v 0.016928 -0.028490 -0.006000
v -0.028231 -0.021047 -0.006000
v 0.000000 0.037000 -0.006000
v 0.028138 0.015620 -0.006000
v -0.016928 0.028490 -0.006000
v 0.000000 -0.037000 -0.006000
v 0.020072 0.028490 -0.006000
v -0.020072 -0.028490 -0.006000
v -0.028231 0.015953 -0.006000
v -0.008994 -0.018271 -0.032000
v 0.003144 -0.019980 -0.032000
v 0.014204 0.014593 -0.006000
v 0.003144 0.019980 -0.006000
v 0.019197 0.007287 -0.032000
v 0.018842 -0.007726 -0.032000
v 0.005173 -0.019363 -0.006000
v 0.013590 -0.015167 -0.006000
v 0.037000 -0.000000 -0.006000
v 0.037000 0.037000 -0.006000
v 0.037000 0.037000 -0.006000
v -0.003144 0.019980 -0.032000
v -0.015302 0.013692 -0.032000
v 0.011883 -0.016234 -0.032000
v -0.037000 0.037000 -0.006000
v -0.037000 0.037000 -0.006000
v -0.037000 0.037000 -0.000000
v -0.037000 0.037000 -0.000000
v -0.037000 -0.000000 -0.006000
v 0.019276 -0.005760 -0.006000
v -0.020360 -0.000420 -0.032000
v -0.017007 -0.010747 -0.032000
v 0.019880 0.003729 -0.006000
v 0.008994 0.018271 -0.032000
v 0.037000 0.000000 0.000000
v 0.037000 -0.037000 0.000000
v 0.037000 -0.037000 0.000000
v -0.005173 0.019363 -0.006000
v -0.013590 0.015167 -0.006000
v -0.019719 0.004500 -0.006000
v -0.014204 -0.014593 -0.006000
v -0.003144 -0.019980 -0.006000
v 0.037000 -0.037000 -0.006000
v 0.037000 -0.037000 -0.006000
v -0.019463 -0.005094 -0.006000
v 0.000000 0.037000 -0.006000
v 0.000000 0.037000 -0.000000
v 0.037000 0.037000 -0.000000
v 0.037000 0.037000 -0.000000
v 0.000000 -0.037000 0.000000
v -0.037000 0.000000 0.000000
v -0.037000 -0.037000 0.000000
v -0.037000 -0.037000 0.000000
v 0.000000 -0.037000 -0.006000
v -0.037000 -0.037000 -0.006000
v -0.037000 -0.037000 -0.006000
vn 0.000000 0.000000 -1.000000
vn 0.981500 0.191000 0.009100
vn 0.936700 0.348900 -0.029500
vn 0.697000 0.716600 0.024700
vn 0.457800 0.888500 -0.031600
vn 0.181700 0.983100 0.020100
vn -0.172000 0.984800 -0.022300
vn -0.274700 0.961500 0.001400
vn -0.675900 0.736900 0.005700
vn -0.748700 0.662500 -0.022200
vn -0.969100 0.245900 0.017500
vn -0.999600 0.009400 -0.025700
vn -0.964000 -0.265200 0.020400
vn -0.846100 -0.532500 -0.022400
vn -0.691900 -0.721600 0.023200
vn -0.432000 -0.901500 -0.024000
vn -0.181700 -0.983100 0.020100
vn 0.145800 -0.989300 -0.009900
vn 0.274700 -0.961500 0.001400
vn 0.669500 -0.742800 0.002900
vn 0.591900 -0.806000 -0.005700
vn 0.937000 -0.348800 -0.019600
vn 0.957700 -0.287800 0.005700
vn 0.000000 0.000000 1.000000
vn 1.000000 0.000000 0.000000
vn 0.000000 1.000000 0.000000
vn -1.000000 0.000000 0.000000
vn 0.000000 -1.000000 0.000000
s 1
f 92//1 38//1 40//1
f 40//1 3//1 4//1
f 4//1 5//1 46//1
f 92//1 46//1 44//1
f 2//1 41//1 43//1
f 43//1 51//1 75//1
f 2//1 75//1 76//1
f 2//1 76//1 11//1
f 11//1 3//1 47//1
f 42//1 67//1 13//1
f 58//1 13//1 50//1
f 50//1 51//1 45//1
f 39//1 5//1 54//1
f 81//1 54//1 16//1
f 16//1 67//1 36//1
f 81//1 36//1 37//1
f 70//2 52//3 14//4
f 14//4 52//3 71//5
f 14//4 71//5 8//6
f 8//6 71//5 59//7
f 8//6 59//7 9//8
f 9//8 59//7 10//9
f 10//9 59//7 60//10
f 10//9 60//10 77//11
f 77//11 60//10 68//12
f 77//11 68//12 82//13
f 82//13 68//12 69//14
f 82//13 69//14 78//15
f 78//15 69//14 48//16
f 78//15 48//16 79//17
f 79//17 48//16 49//18
f 79//17 49//18 15//19
f 15//19 49//18 55//20
f 55//20 49//18 61//21
f 55//20 61//21 53//22
f 55//20 53//22 12//23
f 12//23 53//22 70//2
f 70//2 53//22 52//3
f 24//1 23//1 25//1
f 25//1 23//1 26//1
f 26//1 23//1 22//1
f 26//1 22//1 21//1
f 26//1 21//1 17//1
f 17//1 21//1 20//1
f 17//1 20//1 18//1
f 18//1 20//1 19//1
f 27//24 35//24 33//24
f 85//24 31//24 32//24
f 56//25 57//25 73//25
f 57//25 29//25 72//25
f 83//26 62//26 86//26
f 62//26 64//26 84//26
f 66//27 93//27 65//27
f 93//27 90//27 88//27
f 91//28 80//28 89//28
f 80//28 74//28 87//28
f 32//24 34//24 30//24
f 32//24 31//24 34//24
f 31//24 28//24 34//24
f 33//24 31//24 85//24
f 33//24 35//24 31//24
f 35//24 28//24 31//24
f 37//1 42//1 58//1
f 37//1 36//1 42//1
f 36//1 67//1 42//1
f 43//1 45//1 51//1
f 43//1 41//1 45//1
f 41//1 58//1 45//1
f 44//1 39//1 81//1
f 44//1 46//1 39//1
f 46//1 5//1 39//1
f 40//1 47//1 3//1
f 40//1 38//1 47//1
f 38//1 2//1 47//1
f 92//1 40//1 4//1
f 92//1 4//1 46//1
f 2//1 43//1 75//1
f 2//1 11//1 47//1
f 58//1 42//1 13//1
f 58//1 50//1 45//1
f 81//1 39//1 54//1
f 81//1 16//1 36//1
f 6//25 56//25 73//25
f 73//25 57//25 72//25
f 7//26 83//26 86//26
f 86//26 62//26 84//26
f 63//27 66//27 65//27
f 65//27 93//27 88//27
f 1//28 91//28 89//28
f 89//28 80//28 87//28
