# Blender v2.76 (sub 0) OBJ File: ''
# www.blender.org
v -0.055000 0.350000 -0.457000
v 0.055000 0.350000 -0.457000
v -0.055057 0.013641 -0.457000
v 0.055220 0.013725 -0.457000
v -0.059244 0.007172 -0.457000
v 0.060608 0.002583 -0.457000
v -0.060503 0.001005 -0.457000
v -0.059640 -0.006277 -0.457000
v 0.059244 -0.007172 -0.457000
v -0.055029 -0.013677 -0.457000
v 0.055057 -0.013641 -0.457000
v -0.055000 -0.350000 -0.457000
v 0.055000 -0.350000 -0.457000
v 0.055000 -0.350000 -0.414000
v 0.055000 -0.013564 -0.414000
v -0.055000 -0.013564 -0.414000
v -0.055000 -0.350000 -0.414000
v -0.055000 0.350000 -0.414000
v -0.055000 0.013564 -0.414000
v 0.055000 0.013564 -0.414000
v 0.055000 0.350000 -0.414000
v 0.031510 0.022890 -0.000000
v 0.029613 0.023279 -0.414000
v 0.001027 0.026299 -0.000000
v -0.001027 0.026299 -0.414000
v 0.059919 0.005263 -0.000000
v 0.056776 0.011525 -0.000000
v 0.051216 0.016837 -0.000000
v 0.050423 0.017264 -0.414000
v 0.060471 -0.001549 -0.000000
v 0.050992 -0.017001 -0.000000
v 0.050654 -0.017108 -0.414000
v 0.058343 -0.009375 0.000000
v 0.001027 -0.026299 -0.414000
v -0.001027 -0.026299 0.000000
v 0.029613 -0.023279 0.000000
v 0.031510 -0.022890 -0.414000
v -0.031510 -0.022890 0.000000
v -0.029613 -0.023279 -0.414000
v -0.059919 -0.005263 -0.000000
v -0.056776 -0.011525 0.000000
v -0.051216 -0.016837 -0.000000
v -0.050423 -0.017265 -0.414000
v -0.060471 0.001549 -0.000000
v -0.050992 0.017001 -0.000000
v -0.050654 0.017108 -0.414000
v -0.058343 0.009375 0.000000
v -0.029613 0.023279 -0.000000
v -0.031510 0.022890 -0.414000
v 0.028014 -0.188149 -0.414000
v 0.055000 0.181782 -0.414000
v 0.000000 -0.350000 -0.414000
v 0.000000 0.350000 -0.414000
v -0.026986 -0.188149 -0.414000
v 0.000000 0.181782 -0.414000
v 0.000014 -0.013659 -0.457000
v 0.055110 0.181863 -0.457000
v 0.000000 0.350000 -0.457000
v -0.055029 0.181821 -0.457000
v 0.055029 -0.181821 -0.457000
v -0.000029 0.181821 -0.457000
v 0.000000 -0.350000 -0.457000
v 0.000029 -0.181821 -0.457000
v 0.000081 0.013683 -0.457000
v -0.055015 -0.181838 -0.457000
v -0.051216 -0.016837 -0.000000
v -0.031510 -0.022890 0.000000
v 0.050423 0.017264 -0.414000
v 0.029613 0.023279 -0.414000
v -0.050992 0.017001 -0.000000
v -0.058343 0.009375 0.000000
v 0.060608 0.002583 -0.457000
v 0.059244 -0.007172 -0.457000
v -0.055000 0.350000 -0.457000
v -0.055000 0.350000 -0.457000
v -0.055000 0.350000 -0.414000
v -0.055000 0.350000 -0.414000
v 0.055110 0.181863 -0.457000
v 0.055220 0.013725 -0.457000
v 0.055220 0.013725 -0.457000
v -0.055000 0.013564 -0.414000
v -0.055000 0.013564 -0.414000
v -0.050654 0.017108 -0.414000
v 0.001027 -0.026299 -0.414000
v 0.031510 -0.022890 -0.414000
v 0.000000 0.350000 -0.457000
v 0.055000 0.350000 -0.457000
v 0.055000 0.350000 -0.457000
v -0.031510 0.022890 -0.414000
v 0.001027 0.026299 -0.000000
v -0.029613 0.023279 -0.000000
v 0.050992 -0.017001 -0.000000
v 0.029613 -0.023279 0.000000
v 0.055000 0.350000 -0.414000
v 0.055000 0.350000 -0.414000
v -0.001027 -0.026299 0.000000
v 0.055000 0.013564 -0.414000
v 0.055000 0.013564 -0.414000
v -0.055029 0.181821 -0.457000
v -0.055057 0.013641 -0.457000
v -0.055057 0.013641 -0.457000
v 0.055000 0.181782 -0.414000
v 0.055029 -0.181821 -0.457000
v 0.055000 -0.350000 -0.457000
v 0.055000 -0.350000 -0.457000
v 0.055000 -0.350000 -0.414000
v 0.055000 -0.350000 -0.414000
v 0.055000 -0.013564 -0.414000
v 0.055000 -0.013564 -0.414000
v 0.000000 -0.350000 -0.414000
v -0.055000 -0.350000 -0.414000
v -0.055000 -0.350000 -0.414000
v -0.050423 -0.017265 -0.414000
v -0.029613 -0.023279 -0.414000
v 0.058343 -0.009375 0.000000
v 0.059919 0.005263 -0.000000
v 0.060471 -0.001549 -0.000000
v -0.056776 -0.011525 0.000000
v 0.031510 0.022890 -0.000000
v 0.051216 0.016837 -0.000000
v 0.050654 -0.017108 -0.414000
v -0.059640 -0.006277 -0.457000
v -0.055029 -0.013677 -0.457000
v -0.055029 -0.013677 -0.457000
v -0.060503 0.001005 -0.457000
v -0.060471 0.001549 -0.000000
v 0.055057 -0.013641 -0.457000
v 0.055057 -0.013641 -0.457000
v 0.000000 -0.350000 -0.457000
v -0.001027 0.026299 -0.414000
v -0.059244 0.007172 -0.457000
v 0.000000 0.350000 -0.414000
v -0.055000 -0.013564 -0.414000
v -0.055000 -0.013564 -0.414000
v 0.056776 0.011525 -0.000000
v -0.055000 -0.350000 -0.457000
v -0.055000 -0.350000 -0.457000
v -0.059919 -0.005263 -0.000000
v -0.055015 -0.181838 -0.457000
vn 0.000000 0.000000 -1.000000
vn 1.000000 0.000000 0.000000
vn 1.000000 0.000000 0.000100
vn 1.000000 -0.000200 0.001200
vn 1.000000 -0.000200 0.001300
vn -1.000000 0.000000 0.000700
vn -1.000000 0.000000 0.000600
vn -1.000000 -0.000100 0.000000
vn -1.000000 0.000000 0.000000
vn -1.000000 0.000000 0.000100
vn -1.000000 0.000200 0.001200
vn -1.000000 0.000200 0.001300
vn 1.000000 0.000000 0.004700
vn 1.000000 0.000600 0.000400
vn 1.000000 0.000000 0.005100
vn 1.000000 0.000600 0.000000
vn 0.505700 0.862700 0.000500
vn 0.462300 0.886700 -0.000400
vn 0.203300 0.979100 0.000400
vn 0.188700 0.982000 -0.000400
vn 0.006600 1.000000 0.000400
vn -0.006600 1.000000 -0.000400
vn 0.962800 0.270200 0.000100
vn 0.987900 0.155000 -0.001100
vn 0.898200 0.439600 -0.001200
vn 0.804300 0.594100 -0.000100
vn 0.304500 0.952500 0.002800
vn 0.995700 -0.092300 0.000800
vn 0.838500 -0.544900 -0.000900
vn 0.937000 -0.349100 -0.000900
vn 0.869700 -0.493500 0.000900
vn 0.653200 -0.757200 0.001400
vn 0.517900 -0.855400 0.000800
vn 0.469300 -0.883000 -0.000200
vn -0.006600 -1.000000 0.000400
vn 0.006600 -1.000000 -0.000400
vn 0.190800 -0.981600 0.000400
vn 0.201100 -0.979600 -0.000200
vn -0.505700 -0.862700 0.000500
vn -0.462300 -0.886700 -0.000400
vn -0.203300 -0.979100 0.000400
vn -0.188700 -0.982000 -0.000400
vn -0.963000 -0.269500 0.000300
vn -0.943600 -0.331100 -0.000500
vn -0.804100 -0.594500 0.000500
vn -0.847800 -0.530300 -0.000700
vn -0.494500 -0.869200 0.001600
vn -0.995800 0.092000 0.000400
vn -0.999100 0.041700 -0.000200
vn -0.838500 0.544900 -0.000900
vn -0.925800 0.378000 -0.000500
vn -0.869700 0.493500 0.000900
vn -0.653200 0.757200 0.001400
vn -0.517900 0.855400 0.000800
vn -0.469300 0.883000 -0.000200
vn -0.190800 0.981600 0.000400
vn -0.201100 0.979600 -0.000200
vn 0.000000 0.000000 1.000000
vn 0.000000 -1.000000 0.000000
vn 0.000000 1.000000 0.000000
s 1
f 75//1 58//1 59//1
f 101//1 61//1 64//1
f 64//1 4//1 131//1
f 131//1 4//1 6//1
f 131//1 6//1 7//1
f 7//1 6//1 122//1
f 122//1 6//1 73//1
f 122//1 73//1 123//1
f 73//1 127//1 56//1
f 123//1 56//1 65//1
f 137//1 63//1 62//1
f 106//2 104//3 109//4
f 109//4 104//3 103//5
f 134//6 10//7 112//8
f 112//8 10//7 139//8
f 76//9 74//10 82//11
f 82//11 74//10 99//12
f 80//13 94//14 102//15
f 94//14 80//13 78//16
f 28//17 68//18 119//19
f 119//19 68//18 69//20
f 119//19 69//20 90//21
f 90//21 69//20 130//22
f 116//23 72//24 79//25
f 116//23 79//25 135//26
f 97//27 68//18 28//17
f 97//27 28//17 135//26
f 97//27 135//26 79//25
f 117//28 72//24 116//23
f 11//29 9//30 33//31
f 117//28 33//31 9//30
f 108//32 11//29 33//31
f 108//32 33//31 92//33
f 108//32 92//33 32//34
f 72//24 117//28 9//30
f 96//35 84//36 93//37
f 93//37 84//36 85//38
f 93//37 85//38 92//33
f 92//33 85//38 32//34
f 66//39 113//40 67//41
f 67//41 113//40 114//42
f 67//41 114//42 96//35
f 96//35 114//42 84//36
f 138//43 8//44 41//45
f 41//45 8//44 124//46
f 133//47 113//40 66//39
f 133//47 66//39 41//45
f 133//47 41//45 124//46
f 126//48 125//49 138//43
f 138//43 125//49 8//44
f 3//50 5//51 71//52
f 126//48 71//52 5//51
f 81//53 3//50 71//52
f 81//53 71//52 70//54
f 81//53 70//54 83//55
f 125//49 126//48 5//51
f 90//21 130//22 91//56
f 91//56 130//22 49//57
f 91//56 49//57 70//54
f 70//54 49//57 83//55
f 77//58 19//58 46//58
f 77//58 46//58 89//58
f 77//58 89//58 25//58
f 77//58 25//58 23//58
f 77//58 23//58 29//58
f 29//58 20//58 55//58
f 77//58 55//58 53//58
f 111//58 110//58 54//58
f 54//58 34//58 39//58
f 111//58 39//58 43//58
f 111//58 43//58 16//58
f 107//58 15//58 121//58
f 107//58 121//58 37//58
f 37//58 34//58 50//58
f 136//59 14//59 52//59
f 14//59 136//59 129//59
f 87//60 18//60 132//60
f 18//60 87//60 86//60
f 35//58 36//58 38//58
f 38//58 36//58 31//58
f 38//58 31//58 42//58
f 42//58 31//58 115//58
f 42//58 115//58 118//58
f 118//58 115//58 40//58
f 40//58 115//58 30//58
f 40//58 30//58 44//58
f 44//58 30//58 26//58
f 44//58 26//58 47//58
f 47//58 26//58 27//58
f 47//58 27//58 120//58
f 47//58 120//58 45//58
f 45//58 120//58 22//58
f 45//58 22//58 48//58
f 48//58 22//58 24//58
f 54//58 50//58 34//58
f 54//58 110//58 50//58
f 110//58 107//58 50//58
f 53//58 51//58 21//58
f 53//58 55//58 51//58
f 55//58 20//58 51//58
f 62//1 60//1 13//1
f 62//1 63//1 60//1
f 63//1 127//1 60//1
f 65//1 63//1 137//1
f 65//1 56//1 63//1
f 56//1 127//1 63//1
f 64//1 57//1 4//1
f 64//1 61//1 57//1
f 61//1 2//1 57//1
f 59//1 61//1 101//1
f 59//1 58//1 61//1
f 58//1 2//1 61//1
f 101//1 64//1 131//1
f 123//1 73//1 56//1
f 128//5 109//4 103//5
f 12//8 112//8 139//8
f 100//12 82//11 99//12
f 98//15 80//13 102//15
f 88//16 94//14 78//16
f 77//58 29//58 55//58
f 111//58 54//58 39//58
f 107//58 37//58 50//58
f 17//59 136//59 52//59
f 105//59 14//59 129//59
f 95//60 87//60 132//60
f 1//60 18//60 86//60
