<?xml version="1.0" encoding="UTF-8"?>
<!DOCTYPE svg PUBLIC "-//W3C//DTD SVG 1.1//EN" "http://www.w3.org/Graphics/SVG/1.1/DTD/svg11.dtd">
<svg version="1.1" xmlns="http://www.w3.org/2000/svg" xmlns:xlink="http://www.w3.org/1999/xlink" x="0" y="0" width="279" height="78" viewBox="0, 0, 930, 260">
  <defs>
    <radialGradient id="Gradient_1" gradientUnits="userSpaceOnUse" cx="130.269" cy="128.912" r="123.101">
      <stop offset="0.09" stop-color="#000000"/>
      <stop offset="0.391" stop-color="#000000" stop-opacity="0.538"/>
      <stop offset="0.957" stop-color="#000000" stop-opacity="0"/>
    </radialGradient>
    <linearGradient id="Gradient_2" gradientUnits="userSpaceOnUse" x1="82.361" y1="138.74" x2="228.349" y2="138.74">
      <stop offset="0" stop-color="#00FFF9"/>
      <stop offset="1" stop-color="#007BA4"/>
    </linearGradient>
    <linearGradient id="Gradient_3" gradientUnits="userSpaceOnUse" x1="30.024" y1="114.99" x2="169.148" y2="114.99">
      <stop offset="0" stop-color="#E1DBC7"/>
      <stop offset="1" stop-color="#A09994"/>
    </linearGradient>
    <clipPath id="Clip_1">
      <path d="M169.148,38.84 C175.522,41.176 181.124,45.048 186.7,48.815 C171.127,54.412 154.896,60.263 141.871,70.818 C135.575,75.919 129.774,82.533 130.201,91.091 C132.593,117.393 181.555,163.051 152.274,192.332 C134.683,208.217 104.907,213.314 82.361,216.805 C73.701,212.488 66.059,206.452 59.246,199.639 C75.623,197.758 92.165,195.276 107.613,189.304 C124.405,182.545 144.705,173.408 122.753,136.317 C103.463,103.724 94.574,92.514 106.856,71.218 C118.507,54.089 150.405,44.647 169.148,38.84 z"/>
    </clipPath>
    <filter id="InnerShadow_2">
      <feGaussianBlur in="SourceAlpha" stdDeviation="3"/>
      <feOffset dx="3" dy="2" result="offsetblur"/>
      <feFlood flood-color="#000000"/>
      <feComposite in2="offsetblur" operator="in"/>
    </filter>
    <clipPath id="Clip_3">
      <path d="M129.187,30.341 C183.953,30.341 228.349,74.737 228.349,129.502 C228.349,184.268 183.953,228.664 129.187,228.664 C74.421,228.664 30.024,184.268 30.024,129.502 C30.024,74.737 74.421,30.341 129.187,30.341 z"/>
    </clipPath>
    <filter id="InnerShadow_4">
      <feGaussianBlur in="SourceAlpha" stdDeviation="15"/>
      <feOffset dx="0" dy="2" result="offsetblur"/>
      <feFlood flood-color="#000000"/>
      <feComposite in2="offsetblur" operator="in"/>
    </filter>
  </defs>
  <g id="Layer_2">
    <path d="M129.437,252.587 C59.628,252.587 3.038,196.939 3.038,128.293 C3.038,59.648 59.628,4 129.437,4 C199.245,4 255.835,59.648 255.835,128.293 C255.835,196.939 199.245,252.587 129.437,252.587 z" fill="url(#Gradient_1)"/>
  </g>
  <g id="Layer_1">
    <g>
      <path d="M186.7,48.815 C213.615,67.231 227.539,97.466 228.349,129.504 C228.349,184.27 183.953,228.666 129.187,228.666 C112.821,228.662 96.73,224.609 82.361,216.805 C104.281,213.001 135.351,208.391 152.274,192.332 C181.555,163.051 132.593,117.393 130.201,91.091 C129.662,77.925 142.949,69.14 152.984,63.374 C163.621,57.263 175.117,52.764 186.7,48.815 z" fill="url(#Gradient_2)"/>
      <path d="M129.187,30.343 C140.833,30.291 152.324,32.479 163.282,36.36 C165.283,37.068 167.193,38.013 169.148,38.84 C153.826,43.671 138.318,48.605 124.24,56.494 C117.528,60.256 111.104,64.678 106.856,71.218 C94.574,92.514 103.463,103.724 122.753,136.317 C144.705,173.408 124.405,182.545 107.613,189.304 C92.142,195.115 75.647,197.957 59.246,199.639 C39.989,180.952 30.695,156.02 30.024,129.504 C30.024,74.739 74.421,30.343 129.187,30.343 z" fill="url(#Gradient_3)"/>
      <g>
        <path d="M169.148,38.84 C175.522,41.176 181.124,45.048 186.7,48.815 C171.127,54.412 154.896,60.263 141.871,70.818 C135.575,75.919 129.774,82.533 130.201,91.091 C132.593,117.393 181.555,163.051 152.274,192.332 C134.683,208.217 104.907,213.314 82.361,216.805 C73.701,212.488 66.059,206.452 59.246,199.639 C75.623,197.758 92.165,195.276 107.613,189.304 C124.405,182.545 144.705,173.408 122.753,136.317 C103.463,103.724 94.574,92.514 106.856,71.218 C118.507,54.089 150.405,44.647 169.148,38.84 z" fill="#B4FFFA"/>
        <path d="M49.246,29.84 L196.7,29.84 L196.7,225.805 L49.246,225.805 z M169.148,38.84 C150.405,44.647 118.507,54.089 106.856,71.218 C94.574,92.514 103.463,103.724 122.753,136.317 C144.705,173.408 124.405,182.545 107.613,189.304 C92.165,195.276 75.623,197.758 59.246,199.639 C66.059,206.452 73.701,212.488 82.361,216.805 C104.907,213.314 134.683,208.217 152.274,192.332 C181.555,163.051 132.593,117.393 130.201,91.091 C129.774,82.533 135.575,75.919 141.871,70.818 C154.896,60.263 171.127,54.412 186.7,48.815 C181.124,45.048 175.522,41.176 169.148,38.84 z" clip-path="url(#Clip_1)" filter="url(#InnerShadow_2)" fill="rgba(0,0,0,0.625)"/>
      </g>
      <path d="M-0.976,-2.659 L259.349,-2.659 L259.349,261.664 L-0.976,261.664 z M129.187,30.341 C74.421,30.341 30.024,74.737 30.024,129.502 C30.024,184.268 74.421,228.664 129.187,228.664 C183.953,228.664 228.349,184.268 228.349,129.502 C228.349,74.737 183.953,30.341 129.187,30.341 z" clip-path="url(#Clip_3)" filter="url(#InnerShadow_4)" fill="rgba(0,0,0,0.452)"/>
    </g>
    <g>
      <path d="M348.264,113.631 Q348.264,119.472 345.539,125.179 Q342.813,130.885 337.899,134.846 Q332.515,139.143 325.347,141.56 Q318.179,143.977 308.083,143.977 Q297.247,143.977 288.598,141.963 Q279.95,139.949 270.998,135.988 L270.998,119.338 L271.94,119.338 Q279.546,125.649 289.507,129.073 Q299.468,132.497 308.218,132.497 Q320.602,132.497 327.501,127.864 Q334.4,123.232 334.4,115.511 Q334.4,108.865 331.135,105.709 Q327.871,102.554 321.208,100.808 Q316.16,99.466 310.271,98.593 Q304.381,97.72 297.785,96.377 Q284.459,93.558 278.031,86.743 Q271.604,79.929 271.604,68.986 Q271.604,56.431 282.238,48.409 Q292.872,40.386 309.227,40.386 Q319.794,40.386 328.611,42.4 Q337.428,44.414 344.226,47.368 L344.226,63.078 L343.284,63.078 Q337.563,58.244 328.241,55.055 Q318.919,51.866 309.16,51.866 Q298.458,51.866 291.964,56.297 Q285.469,60.728 285.469,67.71 Q285.469,73.954 288.699,77.512 Q291.93,81.07 300.074,82.95 Q304.381,83.89 312.323,85.233 Q320.265,86.576 325.784,87.985 Q336.957,90.939 342.611,96.914 Q348.264,102.89 348.264,113.631 z" fill="#FFFFFF"/>
      <path d="M407.695,141.493 Q404.128,142.433 399.921,143.037 Q395.715,143.641 392.417,143.641 Q380.908,143.641 374.917,137.465 Q368.927,131.288 368.927,117.659 L368.927,77.781 L360.379,77.781 L360.379,67.173 L368.927,67.173 L368.927,45.623 L381.581,45.623 L381.581,67.173 L407.695,67.173 L407.695,77.781 L381.581,77.781 L381.581,111.953 Q381.581,117.861 381.85,121.184 Q382.119,124.507 383.734,127.394 Q385.215,130.08 387.806,131.322 Q390.398,132.564 395.715,132.564 Q398.811,132.564 402.176,131.657 Q405.541,130.751 407.022,130.147 L407.695,130.147 z" fill="#FFFFFF"/>
      <path d="M487.048,104.702 Q487.048,123.03 477.625,133.638 Q468.203,144.245 452.386,144.245 Q436.434,144.245 427.045,133.638 Q417.656,123.03 417.656,104.702 Q417.656,86.374 427.045,75.733 Q436.434,65.092 452.386,65.092 Q468.203,65.092 477.625,75.733 Q487.048,86.374 487.048,104.702 z M473.991,104.702 Q473.991,90.134 468.27,83.051 Q462.549,75.968 452.386,75.968 Q442.088,75.968 436.401,83.051 Q430.713,90.134 430.713,104.702 Q430.713,118.801 436.434,126.085 Q442.155,133.369 452.386,133.369 Q462.482,133.369 468.236,126.152 Q473.991,118.935 473.991,104.702 z" fill="#FFFFFF"/>
      <path d="M569.497,142.164 L556.844,142.164 L556.844,99.466 Q556.844,94.296 556.238,89.764 Q555.632,85.233 554.017,82.682 Q552.334,79.862 549.171,78.486 Q546.008,77.109 540.96,77.109 Q535.777,77.109 530.123,79.661 Q524.47,82.212 519.287,86.173 L519.287,142.164 L506.634,142.164 L506.634,67.173 L519.287,67.173 L519.287,75.498 Q525.21,70.597 531.537,67.845 Q537.864,65.092 544.527,65.092 Q556.709,65.092 563.103,72.41 Q569.497,79.728 569.497,93.491 z" fill="#FFFFFF"/>
      <path d="M656.792,105.978 L601.4,105.978 Q601.4,112.893 603.486,118.029 Q605.573,123.165 609.207,126.454 Q612.707,129.677 617.52,131.288 Q622.332,132.899 628.12,132.899 Q635.793,132.899 643.567,129.845 Q651.34,126.79 654.638,123.836 L655.311,123.836 L655.311,137.599 Q648.917,140.284 642.254,142.097 Q635.591,143.91 628.255,143.91 Q609.544,143.91 599.044,133.806 Q588.545,123.702 588.545,105.105 Q588.545,86.71 598.607,75.901 Q608.669,65.092 625.091,65.092 Q640.302,65.092 648.547,73.954 Q656.792,82.816 656.792,99.13 z M644.475,96.31 Q644.408,86.374 639.461,80.936 Q634.514,75.498 624.418,75.498 Q614.255,75.498 608.231,81.473 Q602.208,87.448 601.4,96.31 z" fill="#FFFFFF"/>
      <path d="M716.425,49.919 L715.752,49.919 Q713.665,49.315 710.3,48.677 Q706.935,48.04 704.377,48.04 Q696.233,48.04 692.565,51.631 Q688.897,55.223 688.897,64.622 L688.897,67.173 L711.713,67.173 L711.713,77.781 L689.301,77.781 L689.301,142.164 L676.647,142.164 L676.647,77.781 L668.099,77.781 L668.099,67.173 L676.647,67.173 L676.647,64.689 Q676.647,51.329 683.31,44.179 Q689.974,37.029 702.56,37.029 Q706.8,37.029 710.199,37.432 Q713.598,37.835 716.425,38.372 z" fill="#FFFFFF"/>
      <path d="M738.03,54.619 L723.761,54.619 L723.761,41.527 L738.03,41.527 z M737.222,142.164 L724.569,142.164 L724.569,67.173 L737.222,67.173 z" fill="#FFFFFF"/>
      <path d="M815.969,120.546 Q815.969,130.818 807.455,137.397 Q798.941,143.977 784.201,143.977 Q775.855,143.977 768.889,141.996 Q761.923,140.016 757.212,137.666 L757.212,123.5 L757.885,123.5 Q763.875,127.998 771.211,130.65 Q778.548,133.302 785.278,133.302 Q793.624,133.302 798.335,130.617 Q803.047,127.931 803.047,122.158 Q803.047,117.727 800.489,115.444 Q797.932,113.161 790.663,111.55 Q787.97,110.946 783.629,110.14 Q779.288,109.335 775.721,108.395 Q765.827,105.776 761.688,100.708 Q757.548,95.639 757.548,88.254 Q757.548,83.622 759.466,79.526 Q761.385,75.431 765.288,72.208 Q769.057,69.053 774.879,67.207 Q780.701,65.361 787.903,65.361 Q794.634,65.361 801.532,67.005 Q808.431,68.65 813.008,71 L813.008,84.494 L812.335,84.494 Q807.489,80.936 800.556,78.486 Q793.624,76.035 786.961,76.035 Q780.028,76.035 775.25,78.687 Q770.471,81.339 770.471,86.576 Q770.471,91.208 773.365,93.558 Q776.192,95.907 782.519,97.384 Q786.018,98.19 790.36,98.996 Q794.701,99.801 797.595,100.473 Q806.412,102.487 811.191,107.388 Q815.969,112.356 815.969,120.546 z" fill="#FFFFFF"/>
      <path d="M896.938,142.164 L884.284,142.164 L884.284,99.466 Q884.284,94.296 883.678,89.764 Q883.073,85.233 881.457,82.682 Q879.775,79.862 876.611,78.486 Q873.448,77.109 868.4,77.109 Q863.218,77.109 857.564,79.661 Q851.91,82.212 846.728,86.173 L846.728,142.164 L834.074,142.164 L834.074,37.701 L846.728,37.701 L846.728,75.498 Q852.651,70.597 858.977,67.845 Q865.304,65.092 871.967,65.092 Q884.15,65.092 890.544,72.41 Q896.938,79.728 896.938,93.491 z" fill="#FFFFFF"/>
    </g>
    <path d="M316.555,214.666 L311.801,214.666 L311.801,199.76 Q311.801,198.072 311.636,196.502 Q311.472,194.932 310.941,193.994 Q310.359,192.986 309.272,192.471 Q308.184,191.955 306.136,191.955 Q304.138,191.955 302.14,192.881 Q300.142,193.807 298.145,195.236 Q298.22,195.775 298.271,196.49 Q298.322,197.205 298.322,197.908 L298.322,214.666 L293.567,214.666 L293.567,199.76 Q293.567,198.025 293.403,196.467 Q293.238,194.908 292.707,193.971 Q292.126,192.963 291.038,192.459 Q289.951,191.955 287.902,191.955 Q285.955,191.955 283.995,192.846 Q282.035,193.736 280.088,195.119 L280.088,214.666 L275.334,214.666 L275.334,188.486 L280.088,188.486 L280.088,191.392 Q282.314,189.682 284.526,188.721 Q286.739,187.76 289.243,187.76 Q292.126,187.76 294.136,188.885 Q296.147,190.01 297.133,192.002 Q300.016,189.752 302.393,188.756 Q304.77,187.76 307.476,187.76 Q312.129,187.76 314.342,190.373 Q316.555,192.986 316.555,197.674 z" fill="#B4FFFA"/>
    <path d="M347.66,214.666 L342.931,214.666 L342.931,211.877 Q342.299,212.275 341.224,212.99 Q340.15,213.705 339.138,214.127 Q337.949,214.666 336.407,215.029 Q334.864,215.392 332.79,215.392 Q328.972,215.392 326.316,213.049 Q323.661,210.705 323.661,207.072 Q323.661,204.096 325.039,202.256 Q326.418,200.416 328.972,199.361 Q331.551,198.307 335.168,197.932 Q338.784,197.557 342.931,197.369 L342.931,196.689 Q342.931,195.189 342.362,194.205 Q341.793,193.221 340.731,192.658 Q339.72,192.119 338.303,191.932 Q336.887,191.744 335.345,191.744 Q333.473,191.744 331.172,192.201 Q328.871,192.658 326.418,193.525 L326.165,193.525 L326.165,189.049 Q327.556,188.697 330.186,188.275 Q332.816,187.853 335.37,187.853 Q338.354,187.853 340.567,188.31 Q342.78,188.767 344.398,189.869 Q345.991,190.947 346.826,192.658 Q347.66,194.369 347.66,196.9 z M342.931,208.221 L342.931,200.932 Q340.757,201.049 337.81,201.283 Q334.864,201.517 333.145,201.963 Q331.096,202.502 329.832,203.639 Q328.567,204.775 328.567,206.767 Q328.567,209.017 330.034,210.154 Q331.501,211.291 334.51,211.291 Q337.014,211.291 339.087,210.389 Q341.161,209.486 342.931,208.221 z" fill="#B4FFFA"/>
    <path d="M374.441,193.291 L374.189,193.291 Q373.126,193.057 372.128,192.951 Q371.129,192.846 369.763,192.846 Q367.563,192.846 365.514,193.748 Q363.466,194.65 361.569,196.08 L361.569,214.666 L356.815,214.666 L356.815,188.486 L361.569,188.486 L361.569,192.353 Q364.402,190.244 366.564,189.365 Q368.726,188.486 370.977,188.486 Q372.216,188.486 372.772,188.545 Q373.329,188.603 374.441,188.767 z" fill="#B4FFFA"/>
    <path d="M384.026,184.103 L378.665,184.103 L378.665,179.533 L384.026,179.533 z M383.723,214.666 L378.968,214.666 L378.968,188.486 L383.723,188.486 z" fill="#B4FFFA"/>
    <path d="M416.75,214.666 L411.996,214.666 L411.996,199.76 Q411.996,197.955 411.768,196.373 Q411.54,194.791 410.934,193.9 Q410.301,192.916 409.113,192.435 Q407.924,191.955 406.027,191.955 Q404.08,191.955 401.956,192.846 Q399.832,193.736 397.884,195.119 L397.884,214.666 L393.13,214.666 L393.13,188.486 L397.884,188.486 L397.884,191.392 Q400.11,189.682 402.487,188.721 Q404.864,187.76 407.368,187.76 Q411.945,187.76 414.348,190.314 Q416.75,192.869 416.75,197.674 z" fill="#B4FFFA"/>
    <path d="M449.55,202.033 L428.737,202.033 Q428.737,204.447 429.521,206.24 Q430.305,208.033 431.671,209.182 Q432.986,210.307 434.794,210.869 Q436.602,211.432 438.777,211.432 Q441.66,211.432 444.581,210.365 Q447.501,209.299 448.741,208.267 L448.993,208.267 L448.993,213.072 Q446.591,214.01 444.087,214.642 Q441.584,215.275 438.827,215.275 Q431.797,215.275 427.852,211.748 Q423.907,208.221 423.907,201.728 Q423.907,195.307 427.687,191.533 Q431.468,187.76 437.639,187.76 Q443.354,187.76 446.452,190.853 Q449.55,193.947 449.55,199.642 z M444.922,198.658 Q444.897,195.189 443.038,193.291 Q441.179,191.392 437.386,191.392 Q433.567,191.392 431.304,193.478 Q429.04,195.564 428.737,198.658 z" fill="#B4FFFA"/>
    <path d="M492.592,193.291 L492.339,193.291 Q491.277,193.057 490.278,192.951 Q489.279,192.846 487.913,192.846 Q485.713,192.846 483.665,193.748 Q481.616,194.65 479.72,196.08 L479.72,214.666 L474.965,214.666 L474.965,188.486 L479.72,188.486 L479.72,192.353 Q482.552,190.244 484.714,189.365 Q486.876,188.486 489.127,188.486 Q490.366,188.486 490.923,188.545 Q491.479,188.603 492.592,188.767 z" fill="#B4FFFA"/>
    <path d="M521.143,201.588 Q521.143,207.986 517.603,211.689 Q514.062,215.392 508.119,215.392 Q502.126,215.392 498.598,211.689 Q495.07,207.986 495.07,201.588 Q495.07,195.189 498.598,191.474 Q502.126,187.76 508.119,187.76 Q514.062,187.76 517.603,191.474 Q521.143,195.189 521.143,201.588 z M516.237,201.588 Q516.237,196.502 514.087,194.029 Q511.938,191.557 508.119,191.557 Q504.25,191.557 502.113,194.029 Q499.976,196.502 499.976,201.588 Q499.976,206.51 502.126,209.053 Q504.275,211.596 508.119,211.596 Q511.913,211.596 514.075,209.076 Q516.237,206.557 516.237,201.588 z" fill="#B4FFFA"/>
    <path d="M553.361,201.377 Q553.361,204.658 552.362,207.283 Q551.363,209.908 549.669,211.689 Q547.873,213.541 545.724,214.467 Q543.574,215.392 540.995,215.392 Q538.592,215.392 536.797,214.865 Q535.001,214.338 533.256,213.447 L532.953,214.666 L528.502,214.666 L528.502,178.197 L533.256,178.197 L533.256,191.228 Q535.254,189.705 537.505,188.732 Q539.756,187.76 542.563,187.76 Q547.57,187.76 550.466,191.322 Q553.361,194.885 553.361,201.377 z M548.455,201.494 Q548.455,196.807 546.786,194.381 Q545.117,191.955 541.399,191.955 Q539.326,191.955 537.201,192.787 Q535.077,193.619 533.256,194.932 L533.256,209.932 Q535.28,210.775 536.734,211.103 Q538.188,211.432 540.034,211.432 Q543.979,211.432 546.217,209.029 Q548.455,206.627 548.455,201.494 z" fill="#B4FFFA"/>
    <path d="M584.846,201.588 Q584.846,207.986 581.306,211.689 Q577.765,215.392 571.822,215.392 Q565.829,215.392 562.301,211.689 Q558.773,207.986 558.773,201.588 Q558.773,195.189 562.301,191.474 Q565.829,187.76 571.822,187.76 Q577.765,187.76 581.306,191.474 Q584.846,195.189 584.846,201.588 z M579.94,201.588 Q579.94,196.502 577.79,194.029 Q575.641,191.557 571.822,191.557 Q567.953,191.557 565.816,194.029 Q563.679,196.502 563.679,201.588 Q563.679,206.51 565.829,209.053 Q567.978,211.596 571.822,211.596 Q575.615,211.596 577.778,209.076 Q579.94,206.557 579.94,201.588 z" fill="#B4FFFA"/>
    <path d="M606.873,214.432 Q605.532,214.76 603.952,214.971 Q602.371,215.182 601.132,215.182 Q596.808,215.182 594.557,213.025 Q592.306,210.869 592.306,206.111 L592.306,192.189 L589.095,192.189 L589.095,188.486 L592.306,188.486 L592.306,180.963 L597.061,180.963 L597.061,188.486 L606.873,188.486 L606.873,192.189 L597.061,192.189 L597.061,204.119 Q597.061,206.182 597.162,207.342 Q597.263,208.502 597.87,209.51 Q598.426,210.447 599.4,210.881 Q600.373,211.314 602.371,211.314 Q603.535,211.314 604.799,210.998 Q606.063,210.682 606.62,210.471 L606.873,210.471 z" fill="#B4FFFA"/>
    <path d="M632.794,207.119 Q632.794,210.705 629.595,213.002 Q626.396,215.299 620.858,215.299 Q617.722,215.299 615.104,214.607 Q612.487,213.916 610.717,213.096 L610.717,208.15 L610.97,208.15 Q613.22,209.721 615.977,210.646 Q618.733,211.572 621.262,211.572 Q624.398,211.572 626.168,210.635 Q627.938,209.697 627.938,207.682 Q627.938,206.135 626.977,205.338 Q626.016,204.541 623.285,203.978 Q622.274,203.767 620.643,203.486 Q619.011,203.205 617.671,202.877 Q613.954,201.963 612.398,200.193 Q610.843,198.424 610.843,195.846 Q610.843,194.228 611.564,192.799 Q612.285,191.369 613.751,190.244 Q615.168,189.142 617.355,188.498 Q619.543,187.853 622.248,187.853 Q624.777,187.853 627.369,188.428 Q629.962,189.002 631.681,189.822 L631.681,194.533 L631.428,194.533 Q629.608,193.291 627.003,192.435 Q624.398,191.58 621.894,191.58 Q619.29,191.58 617.494,192.506 Q615.699,193.432 615.699,195.26 Q615.699,196.877 616.786,197.697 Q617.848,198.517 620.225,199.033 Q621.54,199.314 623.172,199.596 Q624.803,199.877 625.89,200.111 Q629.203,200.814 630.998,202.525 Q632.794,204.26 632.794,207.119 z" fill="#B4FFFA"/>
    <path d="M677.985,207.119 Q677.985,210.705 674.786,213.002 Q671.587,215.299 666.049,215.299 Q662.913,215.299 660.296,214.607 Q657.678,213.916 655.908,213.096 L655.908,208.15 L656.161,208.15 Q658.412,209.721 661.168,210.646 Q663.925,211.572 666.454,211.572 Q669.589,211.572 671.36,210.635 Q673.13,209.697 673.13,207.682 Q673.13,206.135 672.169,205.338 Q671.208,204.541 668.477,203.978 Q667.465,203.767 665.834,203.486 Q664.203,203.205 662.863,202.877 Q659.145,201.963 657.59,200.193 Q656.035,198.424 656.035,195.846 Q656.035,194.228 656.755,192.799 Q657.476,191.369 658.943,190.244 Q660.359,189.142 662.546,188.498 Q664.734,187.853 667.44,187.853 Q669.969,187.853 672.561,188.428 Q675.153,189.002 676.873,189.822 L676.873,194.533 L676.62,194.533 Q674.799,193.291 672.194,192.435 Q669.589,191.58 667.086,191.58 Q664.481,191.58 662.686,192.506 Q660.89,193.432 660.89,195.26 Q660.89,196.877 661.977,197.697 Q663.04,198.517 665.417,199.033 Q666.732,199.314 668.363,199.596 Q669.994,199.877 671.081,200.111 Q674.394,200.814 676.19,202.525 Q677.985,204.26 677.985,207.119 z" fill="#B4FFFA"/>
    <path d="M689.897,184.103 L684.535,184.103 L684.535,179.533 L689.897,179.533 z M689.593,214.666 L684.839,214.666 L684.839,188.486 L689.593,188.486 z" fill="#B4FFFA"/>
    <path d="M740.222,214.666 L735.467,214.666 L735.467,199.76 Q735.467,198.072 735.303,196.502 Q735.139,194.932 734.607,193.994 Q734.026,192.986 732.938,192.471 Q731.851,191.955 729.803,191.955 Q727.805,191.955 725.807,192.881 Q723.809,193.807 721.811,195.236 Q721.887,195.775 721.938,196.49 Q721.988,197.205 721.988,197.908 L721.988,214.666 L717.234,214.666 L717.234,199.76 Q717.234,198.025 717.07,196.467 Q716.905,194.908 716.374,193.971 Q715.792,192.963 714.705,192.459 Q713.618,191.955 711.569,191.955 Q709.622,191.955 707.662,192.846 Q705.702,193.736 703.755,195.119 L703.755,214.666 L699.001,214.666 L699.001,188.486 L703.755,188.486 L703.755,191.392 Q705.98,189.682 708.193,188.721 Q710.406,187.76 712.91,187.76 Q715.792,187.76 717.803,188.885 Q719.813,190.01 720.8,192.002 Q723.683,189.752 726.06,188.756 Q728.437,187.76 731.143,187.76 Q735.796,187.76 738.009,190.373 Q740.222,192.986 740.222,197.674 z" fill="#B4FFFA"/>
    <path d="M772.794,214.666 L768.04,214.666 L768.04,211.76 Q765.637,213.517 763.437,214.455 Q761.237,215.392 758.581,215.392 Q754.131,215.392 751.652,212.873 Q749.174,210.353 749.174,205.478 L749.174,188.486 L753.928,188.486 L753.928,203.392 Q753.928,205.385 754.131,206.803 Q754.333,208.221 754.99,209.228 Q755.673,210.26 756.761,210.728 Q757.848,211.197 759.922,211.197 Q761.768,211.197 763.955,210.307 Q766.143,209.416 768.04,208.033 L768.04,188.486 L772.794,188.486 z" fill="#B4FFFA"/>
    <path d="M786.956,214.666 L782.201,214.666 L782.201,178.197 L786.956,178.197 z" fill="#B4FFFA"/>
    <path d="M818.314,214.666 L813.585,214.666 L813.585,211.877 Q812.953,212.275 811.878,212.99 Q810.803,213.705 809.792,214.127 Q808.603,214.666 807.06,215.029 Q805.518,215.392 803.444,215.392 Q799.626,215.392 796.97,213.049 Q794.315,210.705 794.315,207.072 Q794.315,204.096 795.693,202.256 Q797.071,200.416 799.626,199.361 Q802.205,198.307 805.821,197.932 Q809.438,197.557 813.585,197.369 L813.585,196.689 Q813.585,195.189 813.016,194.205 Q812.447,193.221 811.385,192.658 Q810.373,192.119 808.957,191.932 Q807.541,191.744 805.998,191.744 Q804.127,191.744 801.826,192.201 Q799.524,192.658 797.071,193.525 L796.818,193.525 L796.818,189.049 Q798.209,188.697 800.839,188.275 Q803.469,187.853 806.024,187.853 Q809.008,187.853 811.221,188.31 Q813.433,188.767 815.052,189.869 Q816.645,190.947 817.48,192.658 Q818.314,194.369 818.314,196.9 z M813.585,208.221 L813.585,200.932 Q811.41,201.049 808.464,201.283 Q805.518,201.517 803.798,201.963 Q801.75,202.502 800.485,203.639 Q799.221,204.775 799.221,206.767 Q799.221,209.017 800.688,210.154 Q802.154,211.291 805.164,211.291 Q807.667,211.291 809.741,210.389 Q811.815,209.486 813.585,208.221 z" fill="#B4FFFA"/>
    <path d="M842.136,214.432 Q840.796,214.76 839.215,214.971 Q837.635,215.182 836.396,215.182 Q832.071,215.182 829.821,213.025 Q827.57,210.869 827.57,206.111 L827.57,192.189 L824.358,192.189 L824.358,188.486 L827.57,188.486 L827.57,180.963 L832.324,180.963 L832.324,188.486 L842.136,188.486 L842.136,192.189 L832.324,192.189 L832.324,204.119 Q832.324,206.182 832.425,207.342 Q832.527,208.502 833.133,209.51 Q833.69,210.447 834.663,210.881 Q835.637,211.314 837.635,211.314 Q838.798,211.314 840.063,210.998 Q841.327,210.682 841.883,210.471 L842.136,210.471 z" fill="#B4FFFA"/>
    <path d="M871.952,201.588 Q871.952,207.986 868.412,211.689 Q864.871,215.392 858.928,215.392 Q852.935,215.392 849.407,211.689 Q845.879,207.986 845.879,201.588 Q845.879,195.189 849.407,191.474 Q852.935,187.76 858.928,187.76 Q864.871,187.76 868.412,191.474 Q871.952,195.189 871.952,201.588 z M867.046,201.588 Q867.046,196.502 864.896,194.029 Q862.747,191.557 858.928,191.557 Q855.059,191.557 852.922,194.029 Q850.785,196.502 850.785,201.588 Q850.785,206.51 852.935,209.053 Q855.084,211.596 858.928,211.596 Q862.722,211.596 864.884,209.076 Q867.046,206.557 867.046,201.588 z" fill="#B4FFFA"/>
    <path d="M896.938,193.291 L896.685,193.291 Q895.623,193.057 894.624,192.951 Q893.625,192.846 892.259,192.846 Q890.059,192.846 888.011,193.748 Q885.962,194.65 884.066,196.08 L884.066,214.666 L879.311,214.666 L879.311,188.486 L884.066,188.486 L884.066,192.353 Q886.898,190.244 889.06,189.365 Q891.222,188.486 893.473,188.486 Q894.712,188.486 895.269,188.545 Q895.825,188.603 896.938,188.767 z" fill="#B4FFFA"/>
  </g>
</svg>
